<mxfile host="app.diagrams.net" agent="Mozilla/5.0 (Windows NT 10.0; Win64; x64) AppleWebKit/537.36 (KHTML, like Gecko) Chrome/131.0.0.0 Safari/537.36" version="24.8.6">
  <diagram name="Page-1" id="uaWx83Zuc7VZpM0CNlRG">
    <mxGraphModel dx="890" dy="-2258" grid="1" gridSize="10" guides="1" tooltips="1" connect="1" arrows="0" fold="1" page="1" pageScale="1" pageWidth="1600" pageHeight="900" math="0" shadow="0">
      <root>
        <mxCell id="0" />
        <mxCell id="1" parent="0" />
        <mxCell id="Iom_2p9-gJP5RG_fc04b-1" value="TextMessage" style="swimlane;fontStyle=1;align=center;verticalAlign=middle;childLayout=stackLayout;horizontal=1;startSize=20;horizontalStack=0;resizeParent=1;resizeLast=0;collapsible=0;marginBottom=0;rounded=0;shadow=0;strokeWidth=1;fontFamily=Cascadia Mono;fontSize=10;swimlaneLine=1;fillColor=default;glass=0;html=1;noLabel=0;snapToPoint=0;fixDash=0;" parent="1" vertex="1">
          <mxGeometry x="250" y="4250" width="80" height="40" as="geometry">
            <mxRectangle x="220" y="130" width="160" height="26" as="alternateBounds" />
          </mxGeometry>
        </mxCell>
        <mxCell id="Iom_2p9-gJP5RG_fc04b-2" value="text: &lt;b style=&quot;font-size: 10px;&quot;&gt;Text&lt;/b&gt;" style="text;align=left;verticalAlign=middle;spacingLeft=4;spacingRight=4;overflow=hidden;rotatable=0;points=[[0,0.5],[1,0.5]];portConstraint=eastwest;fontFamily=Cascadia Mono;fontStyle=0;fontSize=10;html=1;" parent="Iom_2p9-gJP5RG_fc04b-1" vertex="1">
          <mxGeometry y="20" width="80" height="20" as="geometry" />
        </mxCell>
        <mxCell id="Iom_2p9-gJP5RG_fc04b-3" value="PhotoMessage" style="swimlane;fontStyle=1;align=center;verticalAlign=middle;childLayout=stackLayout;horizontal=1;startSize=20;horizontalStack=0;resizeParent=1;resizeLast=0;collapsible=0;marginBottom=0;rounded=0;shadow=0;strokeWidth=1;fontFamily=Cascadia Mono;fontSize=10;swimlaneLine=1;fillColor=default;glass=0;html=1;noLabel=0;snapToPoint=0;fixDash=0;" parent="1" vertex="1">
          <mxGeometry x="250" y="4310" width="80" height="40" as="geometry">
            <mxRectangle x="220" y="130" width="160" height="26" as="alternateBounds" />
          </mxGeometry>
        </mxCell>
        <mxCell id="Iom_2p9-gJP5RG_fc04b-4" value="photo: &lt;b style=&quot;font-size: 10px;&quot;&gt;Photo&lt;/b&gt;" style="text;align=left;verticalAlign=middle;spacingLeft=4;spacingRight=4;overflow=hidden;rotatable=0;points=[[0,0.5],[1,0.5]];portConstraint=eastwest;fontFamily=Cascadia Mono;fontStyle=0;fontSize=10;html=1;" parent="Iom_2p9-gJP5RG_fc04b-3" vertex="1">
          <mxGeometry y="20" width="80" height="20" as="geometry" />
        </mxCell>
        <mxCell id="Iom_2p9-gJP5RG_fc04b-5" value="" style="endArrow=block;html=1;rounded=1;exitX=1;exitY=0.5;exitDx=0;exitDy=0;curved=0;endFill=0;strokeWidth=1;fontFamily=Cascadia Mono;fontSize=10;startSize=6;endSize=10;" parent="1" source="Iom_2p9-gJP5RG_fc04b-2" edge="1">
          <mxGeometry width="50" height="50" relative="1" as="geometry">
            <mxPoint x="470" y="4330" as="sourcePoint" />
            <mxPoint x="360" y="4300" as="targetPoint" />
            <Array as="points">
              <mxPoint x="340" y="4280" />
              <mxPoint x="340" y="4300" />
            </Array>
          </mxGeometry>
        </mxCell>
        <mxCell id="Iom_2p9-gJP5RG_fc04b-6" value="" style="endArrow=block;html=1;rounded=1;exitX=1;exitY=0.25;exitDx=0;exitDy=0;curved=0;endFill=0;fontFamily=Cascadia Mono;fontSize=10;startSize=6;endSize=10;" parent="1" source="Iom_2p9-gJP5RG_fc04b-3" edge="1">
          <mxGeometry width="50" height="50" relative="1" as="geometry">
            <mxPoint x="460" y="4280" as="sourcePoint" />
            <mxPoint x="360" y="4300" as="targetPoint" />
            <Array as="points">
              <mxPoint x="340" y="4320" />
              <mxPoint x="340" y="4300" />
            </Array>
          </mxGeometry>
        </mxCell>
        <mxCell id="Iom_2p9-gJP5RG_fc04b-7" value="{complete}" style="text;html=1;align=center;verticalAlign=middle;resizable=1;points=[];autosize=1;strokeColor=none;fillColor=none;fontFamily=Cascadia Mono;fontSize=8;fontStyle=2;spacing=0;" parent="1" vertex="1">
          <mxGeometry x="270" y="4290" width="70" height="20" as="geometry" />
        </mxCell>
        <mxCell id="Iom_2p9-gJP5RG_fc04b-8" value="Message" style="swimlane;fontStyle=1;align=center;verticalAlign=middle;childLayout=stackLayout;horizontal=1;startSize=20;horizontalStack=0;resizeParent=1;resizeLast=0;collapsible=0;marginBottom=0;rounded=0;shadow=0;strokeWidth=1;fontFamily=Cascadia Mono;fontSize=10;swimlaneLine=1;fillColor=default;glass=0;html=1;noLabel=0;snapToPoint=0;fixDash=0;" parent="1" vertex="1">
          <mxGeometry x="360" y="4250" width="140" height="80" as="geometry">
            <mxRectangle x="220" y="130" width="160" height="26" as="alternateBounds" />
          </mxGeometry>
        </mxCell>
        <mxCell id="Iom_2p9-gJP5RG_fc04b-9" value="timestamp: &lt;b style=&quot;font-size: 10px;&quot;&gt;Timestamp&lt;/b&gt;" style="text;align=left;verticalAlign=middle;spacingLeft=4;spacingRight=4;overflow=hidden;rotatable=0;points=[[0,0.5],[1,0.5]];portConstraint=eastwest;fontFamily=Cascadia Mono;fontStyle=0;fontSize=10;html=1;glass=0;" parent="Iom_2p9-gJP5RG_fc04b-8" vertex="1">
          <mxGeometry y="20" width="140" height="20" as="geometry" />
        </mxCell>
        <mxCell id="Iom_2p9-gJP5RG_fc04b-10" value="" style="endArrow=none;html=1;rounded=0;entryX=1;entryY=0;entryDx=0;entryDy=0;entryPerimeter=0;" parent="Iom_2p9-gJP5RG_fc04b-8" target="Iom_2p9-gJP5RG_fc04b-11" edge="1">
          <mxGeometry width="50" height="50" relative="1" as="geometry">
            <mxPoint y="40" as="sourcePoint" />
            <mxPoint x="130" y="40" as="targetPoint" />
          </mxGeometry>
        </mxCell>
        <mxCell id="Iom_2p9-gJP5RG_fc04b-11" value="recv():&amp;nbsp;&lt;b style=&quot;font-size: 10px;&quot;&gt;Boolean&lt;/b&gt;" style="text;align=left;verticalAlign=middle;spacingLeft=4;spacingRight=4;overflow=hidden;rotatable=0;points=[[0,0.5],[1,0.5]];portConstraint=eastwest;fontFamily=Cascadia Mono;fontStyle=0;fontSize=10;html=1;strokeColor=none;" parent="Iom_2p9-gJP5RG_fc04b-8" vertex="1">
          <mxGeometry y="40" width="140" height="20" as="geometry" />
        </mxCell>
        <mxCell id="Iom_2p9-gJP5RG_fc04b-12" value="read():&amp;nbsp;&lt;b style=&quot;font-size: 10px;&quot;&gt;Boolean&lt;/b&gt;" style="text;align=left;verticalAlign=middle;spacingLeft=4;spacingRight=4;overflow=hidden;rotatable=0;points=[[0,0.5],[1,0.5]];portConstraint=eastwest;fontFamily=Cascadia Mono;fontStyle=0;fontSize=10;html=1;fillColor=none;" parent="Iom_2p9-gJP5RG_fc04b-8" vertex="1">
          <mxGeometry y="60" width="140" height="20" as="geometry" />
        </mxCell>
        <mxCell id="Iom_2p9-gJP5RG_fc04b-13" value="" style="endArrow=none;html=1;rounded=1;flowAnimation=0;shadow=0;anchorPointDirection=1;curved=0;exitX=0.929;exitY=1;exitDx=0;exitDy=0;exitPerimeter=0;entryX=0.986;entryY=0.5;entryDx=0;entryDy=0;entryPerimeter=0;" parent="1" source="Iom_2p9-gJP5RG_fc04b-12" target="Iom_2p9-gJP5RG_fc04b-17" edge="1">
          <mxGeometry width="50" height="50" relative="1" as="geometry">
            <mxPoint x="519.46" y="4330" as="sourcePoint" />
            <mxPoint x="434" y="4370" as="targetPoint" />
            <Array as="points">
              <mxPoint x="490" y="4370" />
            </Array>
          </mxGeometry>
        </mxCell>
        <mxCell id="Iom_2p9-gJP5RG_fc04b-14" value="0..*" style="text;html=1;align=center;verticalAlign=middle;resizable=1;points=[];autosize=1;strokeColor=none;fillColor=none;fontFamily=Cascadia Mono;fontSize=8;spacing=0;" parent="1" vertex="1">
          <mxGeometry x="430" y="4350" width="40" height="20" as="geometry" />
        </mxCell>
        <mxCell id="Iom_2p9-gJP5RG_fc04b-15" value="1..1" style="text;html=1;align=center;verticalAlign=middle;resizable=1;points=[];autosize=1;strokeColor=none;fillColor=none;fontFamily=Cascadia Mono;fontSize=8;spacing=0;" parent="1" vertex="1">
          <mxGeometry x="490" y="4330" width="40" height="20" as="geometry" />
        </mxCell>
        <mxCell id="Iom_2p9-gJP5RG_fc04b-16" value="message_reply" style="text;html=1;align=center;verticalAlign=middle;resizable=1;points=[];autosize=1;strokeColor=none;fillColor=none;fontFamily=Cascadia Mono;fontSize=10;fontStyle=0;labelBackgroundColor=default;spacing=0;" parent="1" vertex="1">
          <mxGeometry x="430" y="4370" width="100" height="20" as="geometry" />
        </mxCell>
        <mxCell id="Iom_2p9-gJP5RG_fc04b-17" value="Reply" style="swimlane;fontStyle=1;align=center;verticalAlign=middle;childLayout=stackLayout;horizontal=1;startSize=20;horizontalStack=0;resizeParent=1;resizeLast=0;collapsible=0;marginBottom=0;rounded=0;shadow=0;strokeWidth=1;fontFamily=Cascadia Mono;fontSize=10;swimlaneLine=1;fillColor=default;glass=0;html=1;noLabel=0;snapToPoint=0;fixDash=0;" parent="1" vertex="1">
          <mxGeometry x="390.55999999999995" y="4360" width="40" height="20" as="geometry">
            <mxRectangle x="220" y="130" width="160" height="26" as="alternateBounds" />
          </mxGeometry>
        </mxCell>
        <mxCell id="Iom_2p9-gJP5RG_fc04b-18" value="" style="endArrow=block;html=1;rounded=1;curved=0;endFill=0;strokeWidth=1;fontFamily=Cascadia Mono;fontSize=10;startSize=6;endSize=10;exitX=0.25;exitY=0;exitDx=0;exitDy=0;exitPerimeter=0;entryX=0.143;entryY=1;entryDx=0;entryDy=0;entryPerimeter=0;" parent="1" target="Iom_2p9-gJP5RG_fc04b-12" edge="1">
          <mxGeometry width="50" height="50" relative="1" as="geometry">
            <mxPoint x="400.6199999999999" y="4360" as="sourcePoint" />
            <mxPoint x="380" y="4340" as="targetPoint" />
            <Array as="points">
              <mxPoint x="400.05999999999995" y="4350" />
              <mxPoint x="380" y="4350" />
            </Array>
          </mxGeometry>
        </mxCell>
        <mxCell id="Iom_2p9-gJP5RG_fc04b-19" value="GroupMessage" style="swimlane;fontStyle=1;align=center;verticalAlign=middle;childLayout=stackLayout;horizontal=1;startSize=20;horizontalStack=0;resizeParent=1;resizeLast=0;collapsible=0;marginBottom=0;rounded=0;shadow=0;strokeWidth=1;fontFamily=Cascadia Mono;fontSize=10;swimlaneLine=1;fillColor=default;glass=0;html=1;noLabel=0;snapToPoint=0;fixDash=0;" parent="1" vertex="1">
          <mxGeometry x="339.44000000000005" y="4200" width="80" height="20" as="geometry">
            <mxRectangle x="220" y="130" width="160" height="26" as="alternateBounds" />
          </mxGeometry>
        </mxCell>
        <mxCell id="Iom_2p9-gJP5RG_fc04b-20" value="ChatMessage" style="swimlane;fontStyle=1;align=center;verticalAlign=middle;childLayout=stackLayout;horizontal=1;startSize=20;horizontalStack=0;resizeParent=1;resizeLast=0;collapsible=0;marginBottom=0;rounded=0;shadow=0;strokeWidth=1;fontFamily=Cascadia Mono;fontSize=10;swimlaneLine=1;fillColor=default;glass=0;html=1;noLabel=0;snapToPoint=0;fixDash=0;" parent="1" vertex="1">
          <mxGeometry x="440" y="4200" width="80" height="20" as="geometry">
            <mxRectangle x="220" y="130" width="160" height="26" as="alternateBounds" />
          </mxGeometry>
        </mxCell>
        <mxCell id="Iom_2p9-gJP5RG_fc04b-21" value="" style="endArrow=block;html=1;rounded=1;curved=0;endFill=0;strokeWidth=1;fontFamily=Cascadia Mono;fontSize=10;startSize=6;endSize=10;" parent="1" edge="1">
          <mxGeometry width="50" height="50" relative="1" as="geometry">
            <mxPoint x="450" y="4220" as="sourcePoint" />
            <mxPoint x="430" y="4250" as="targetPoint" />
            <Array as="points">
              <mxPoint x="450" y="4230" />
              <mxPoint x="430" y="4230" />
            </Array>
          </mxGeometry>
        </mxCell>
        <mxCell id="Iom_2p9-gJP5RG_fc04b-22" value="" style="endArrow=block;html=1;rounded=1;curved=0;endFill=0;fontFamily=Cascadia Mono;fontSize=10;startSize=6;endSize=10;entryX=0.5;entryY=0;entryDx=0;entryDy=0;entryPerimeter=0;" parent="1" target="Iom_2p9-gJP5RG_fc04b-8" edge="1">
          <mxGeometry width="50" height="50" relative="1" as="geometry">
            <mxPoint x="410" y="4220" as="sourcePoint" />
            <mxPoint x="440" y="4240" as="targetPoint" />
            <Array as="points">
              <mxPoint x="410" y="4230" />
              <mxPoint x="430" y="4230" />
            </Array>
          </mxGeometry>
        </mxCell>
        <mxCell id="Iom_2p9-gJP5RG_fc04b-23" value="{disjoint, complete}" style="text;html=1;align=center;verticalAlign=middle;resizable=1;points=[];autosize=1;strokeColor=none;fillColor=none;fontFamily=Cascadia Mono;fontSize=8;fontStyle=2;spacing=0;" parent="1" vertex="1">
          <mxGeometry x="430" y="4230" width="110" height="20" as="geometry" />
        </mxCell>
        <mxCell id="Iom_2p9-gJP5RG_fc04b-24" value="Group" style="swimlane;fontStyle=1;align=center;verticalAlign=middle;childLayout=stackLayout;horizontal=1;startSize=20;horizontalStack=0;resizeParent=1;resizeLast=0;collapsible=0;marginBottom=0;rounded=0;shadow=0;strokeWidth=1;fontFamily=Cascadia Mono;fontSize=10;swimlaneLine=1;fillColor=default;glass=0;html=1;noLabel=0;snapToPoint=0;fixDash=0;connectable=0;" parent="1" vertex="1">
          <mxGeometry x="320.28" y="3680" width="220" height="40" as="geometry">
            <mxRectangle x="220" y="130" width="160" height="26" as="alternateBounds" />
          </mxGeometry>
        </mxCell>
        <mxCell id="Iom_2p9-gJP5RG_fc04b-25" value="members(t: &lt;b&gt;Timestamp&lt;/b&gt;): &lt;b&gt;User&amp;nbsp;&lt;/b&gt;&lt;span style=&quot;font-size: 10px;&quot;&gt;&lt;font color=&quot;#003366&quot;&gt;[0..*]&lt;/font&gt;&lt;/span&gt;" style="text;align=left;verticalAlign=middle;spacingLeft=4;spacingRight=4;overflow=hidden;rotatable=0;points=[[0,0.5],[1,0.5]];portConstraint=eastwest;fontFamily=Cascadia Mono;fontStyle=0;fontSize=10;html=1;" parent="Iom_2p9-gJP5RG_fc04b-24" vertex="1">
          <mxGeometry y="20" width="220" height="20" as="geometry" />
        </mxCell>
        <mxCell id="Iom_2p9-gJP5RG_fc04b-26" value="" style="endArrow=none;html=1;rounded=1;snapToPoint=1;curved=0;exitX=0;exitY=0;exitDx=0;exitDy=0;exitPerimeter=0;entryX=1;entryY=0;entryDx=0;entryDy=0;entryPerimeter=0;" parent="Iom_2p9-gJP5RG_fc04b-24" source="Iom_2p9-gJP5RG_fc04b-25" target="Iom_2p9-gJP5RG_fc04b-25" edge="1">
          <mxGeometry width="50" height="50" relative="1" as="geometry">
            <mxPoint x="-90" y="20" as="sourcePoint" />
            <mxPoint x="123" y="61" as="targetPoint" />
          </mxGeometry>
        </mxCell>
        <mxCell id="Iom_2p9-gJP5RG_fc04b-27" value="Membership" style="swimlane;fontStyle=1;align=center;verticalAlign=middle;childLayout=stackLayout;horizontal=1;startSize=20;horizontalStack=0;resizeParent=1;resizeLast=0;collapsible=0;marginBottom=0;rounded=0;shadow=0;strokeWidth=1;fontFamily=Cascadia Mono;fontSize=10;swimlaneLine=1;fillColor=default;glass=0;html=1;noLabel=0;snapToPoint=0;fixDash=0;" parent="1" vertex="1">
          <mxGeometry x="370.28" y="3780" width="120" height="40" as="geometry">
            <mxRectangle x="220" y="130" width="160" height="26" as="alternateBounds" />
          </mxGeometry>
        </mxCell>
        <mxCell id="Iom_2p9-gJP5RG_fc04b-28" value="start: &lt;b&gt;Timestamp&lt;/b&gt;" style="text;align=left;verticalAlign=middle;spacingLeft=4;spacingRight=4;overflow=hidden;rotatable=0;points=[[0,0.5],[1,0.5]];portConstraint=eastwest;fontFamily=Cascadia Mono;fontStyle=0;fontSize=10;html=1;" parent="Iom_2p9-gJP5RG_fc04b-27" vertex="1">
          <mxGeometry y="20" width="120" height="20" as="geometry" />
        </mxCell>
        <mxCell id="Iom_2p9-gJP5RG_fc04b-29" value="User" style="swimlane;fontStyle=1;align=center;verticalAlign=middle;childLayout=stackLayout;horizontal=1;startSize=20;horizontalStack=0;resizeParent=1;resizeLast=0;collapsible=0;marginBottom=0;rounded=0;shadow=0;strokeWidth=1;fontFamily=Cascadia Mono;fontSize=10;swimlaneLine=1;fillColor=default;glass=0;html=1;noLabel=0;snapToPoint=0;fixDash=0;" parent="1" vertex="1">
          <mxGeometry x="370" y="3880" width="120" height="80" as="geometry">
            <mxRectangle x="220" y="130" width="160" height="26" as="alternateBounds" />
          </mxGeometry>
        </mxCell>
        <mxCell id="Iom_2p9-gJP5RG_fc04b-30" value="name: &lt;b style=&quot;font-size: 10px;&quot;&gt;Username&lt;/b&gt;&lt;span style=&quot;font-size: 10px;&quot;&gt;&amp;nbsp;&lt;i&gt;{id}&lt;/i&gt;&lt;/span&gt;" style="text;align=left;verticalAlign=middle;spacingLeft=4;spacingRight=4;overflow=hidden;rotatable=0;points=[[0,0.5],[1,0.5]];portConstraint=eastwest;fontFamily=Cascadia Mono;fontStyle=0;fontSize=10;html=1;" parent="Iom_2p9-gJP5RG_fc04b-29" vertex="1">
          <mxGeometry y="20" width="120" height="20" as="geometry" />
        </mxCell>
        <mxCell id="Iom_2p9-gJP5RG_fc04b-31" value="2..*" style="text;html=1;align=center;verticalAlign=middle;resizable=1;points=[];autosize=1;strokeColor=none;fillColor=none;fontFamily=Cascadia Mono;fontSize=8;spacing=0;" parent="1" vertex="1">
          <mxGeometry x="430.55999999999995" y="3760" width="40" height="20" as="geometry" />
        </mxCell>
        <mxCell id="Iom_2p9-gJP5RG_fc04b-32" value="" style="endArrow=none;html=1;rounded=1;flowAnimation=0;shadow=0;anchorPointDirection=1;curved=0;exitX=0.5;exitY=0;exitDx=0;exitDy=0;exitPerimeter=0;" parent="1" source="Iom_2p9-gJP5RG_fc04b-27" edge="1">
          <mxGeometry width="50" height="50" relative="1" as="geometry">
            <mxPoint x="180.55999999999995" y="3710" as="sourcePoint" />
            <mxPoint x="430.55999999999995" y="3720" as="targetPoint" />
            <Array as="points" />
          </mxGeometry>
        </mxCell>
        <mxCell id="Iom_2p9-gJP5RG_fc04b-33" value="group_membership" style="text;html=1;align=center;verticalAlign=middle;resizable=1;points=[];autosize=1;strokeColor=none;fillColor=none;fontFamily=Cascadia Mono;fontSize=10;fontStyle=0;labelBackgroundColor=default;spacing=0;" parent="1" vertex="1">
          <mxGeometry x="375.55999999999995" y="3740" width="110" height="20" as="geometry" />
        </mxCell>
        <mxCell id="Iom_2p9-gJP5RG_fc04b-34" value="1..1" style="text;html=1;align=center;verticalAlign=middle;resizable=1;points=[];autosize=1;strokeColor=none;fillColor=none;fontFamily=Cascadia Mono;fontSize=8;spacing=0;" parent="1" vertex="1">
          <mxGeometry x="430.55999999999995" y="3720" width="40" height="20" as="geometry" />
        </mxCell>
        <mxCell id="Iom_2p9-gJP5RG_fc04b-35" value="1..1" style="text;html=1;align=center;verticalAlign=middle;resizable=1;points=[];autosize=1;strokeColor=none;fillColor=none;fontFamily=Cascadia Mono;fontSize=8;spacing=0;" parent="1" vertex="1">
          <mxGeometry x="430.55999999999995" y="3860" width="40" height="20" as="geometry" />
        </mxCell>
        <mxCell id="Iom_2p9-gJP5RG_fc04b-36" value="" style="endArrow=none;html=1;rounded=1;flowAnimation=0;shadow=0;anchorPointDirection=1;curved=0;exitX=0.5;exitY=0;exitDx=0;exitDy=0;exitPerimeter=0;" parent="1" edge="1">
          <mxGeometry width="50" height="50" relative="1" as="geometry">
            <mxPoint x="430.0799999999999" y="3880" as="sourcePoint" />
            <mxPoint x="430.0799999999999" y="3820" as="targetPoint" />
            <Array as="points" />
          </mxGeometry>
        </mxCell>
        <mxCell id="Iom_2p9-gJP5RG_fc04b-37" value="membership_user" style="text;html=1;align=center;verticalAlign=middle;resizable=1;points=[];autosize=1;strokeColor=none;fillColor=none;fontFamily=Cascadia Mono;fontSize=10;fontStyle=0;labelBackgroundColor=default;spacing=0;" parent="1" vertex="1">
          <mxGeometry x="375.55999999999995" y="3840" width="110" height="20" as="geometry" />
        </mxCell>
        <mxCell id="Iom_2p9-gJP5RG_fc04b-38" value="0..*" style="text;html=1;align=center;verticalAlign=middle;resizable=1;points=[];autosize=1;strokeColor=none;fillColor=none;fontFamily=Cascadia Mono;fontSize=8;spacing=0;" parent="1" vertex="1">
          <mxGeometry x="430.55999999999995" y="3820" width="40" height="20" as="geometry" />
        </mxCell>
        <mxCell id="Iom_2p9-gJP5RG_fc04b-39" value="" style="endArrow=block;html=1;rounded=1;curved=0;endFill=0;strokeWidth=1;fontFamily=Cascadia Mono;fontSize=10;startSize=6;endSize=10;exitX=0.999;exitY=0.5;exitDx=0;exitDy=0;exitPerimeter=0;entryX=0;entryY=0.5;entryDx=0;entryDy=0;entryPerimeter=0;" parent="1" source="Iom_2p9-gJP5RG_fc04b-25" target="Iom_2p9-gJP5RG_fc04b-42" edge="1">
          <mxGeometry width="50" height="50" relative="1" as="geometry">
            <mxPoint x="720.28" y="3710" as="sourcePoint" />
            <mxPoint x="570" y="3800" as="targetPoint" />
            <Array as="points">
              <mxPoint x="550" y="3710" />
              <mxPoint x="550" y="3800" />
            </Array>
          </mxGeometry>
        </mxCell>
        <mxCell id="Iom_2p9-gJP5RG_fc04b-40" value="" style="endArrow=block;html=1;rounded=1;curved=0;endFill=0;fontFamily=Cascadia Mono;fontSize=10;startSize=6;endSize=10;entryX=0;entryY=0.5;entryDx=0;entryDy=0;entryPerimeter=0;exitX=1;exitY=0.125;exitDx=0;exitDy=0;exitPerimeter=0;" parent="1" source="Iom_2p9-gJP5RG_fc04b-29" target="Iom_2p9-gJP5RG_fc04b-42" edge="1">
          <mxGeometry width="50" height="50" relative="1" as="geometry">
            <mxPoint x="500.03999999999974" y="3889.9900000000002" as="sourcePoint" />
            <mxPoint x="690.28" y="3820" as="targetPoint" />
            <Array as="points">
              <mxPoint x="550" y="3890" />
              <mxPoint x="550" y="3800" />
            </Array>
          </mxGeometry>
        </mxCell>
        <mxCell id="Iom_2p9-gJP5RG_fc04b-41" value="Conversation" style="swimlane;fontStyle=1;align=center;verticalAlign=middle;childLayout=stackLayout;horizontal=1;startSize=20;horizontalStack=0;resizeParent=1;resizeLast=0;collapsible=0;marginBottom=0;rounded=0;shadow=0;strokeWidth=1;fontFamily=Cascadia Mono;fontSize=10;swimlaneLine=1;fillColor=default;glass=0;html=1;noLabel=0;snapToPoint=0;fixDash=0;" parent="1" vertex="1">
          <mxGeometry x="575" y="3770" width="120" height="60" as="geometry">
            <mxRectangle x="220" y="130" width="160" height="26" as="alternateBounds" />
          </mxGeometry>
        </mxCell>
        <mxCell id="Iom_2p9-gJP5RG_fc04b-42" value="name: &lt;b style=&quot;font-size: 10px;&quot;&gt;Name&lt;/b&gt;" style="text;align=left;verticalAlign=middle;spacingLeft=4;spacingRight=4;overflow=hidden;rotatable=0;points=[[0,0.5],[1,0.5]];portConstraint=eastwest;fontFamily=Cascadia Mono;fontStyle=0;fontSize=10;html=1;" parent="Iom_2p9-gJP5RG_fc04b-41" vertex="1">
          <mxGeometry y="20" width="120" height="20" as="geometry" />
        </mxCell>
        <mxCell id="Iom_2p9-gJP5RG_fc04b-43" value="photo: &lt;b style=&quot;font-size: 10px;&quot;&gt;Photo&amp;nbsp;&lt;/b&gt;&lt;span style=&quot;color: rgb(0, 51, 102);&quot;&gt;[0..1]&lt;/span&gt;" style="text;align=left;verticalAlign=middle;spacingLeft=4;spacingRight=4;overflow=hidden;rotatable=0;points=[[0,0.5],[1,0.5]];portConstraint=eastwest;fontFamily=Cascadia Mono;fontStyle=0;fontSize=10;html=1;" parent="Iom_2p9-gJP5RG_fc04b-41" vertex="1">
          <mxGeometry y="40" width="120" height="20" as="geometry" />
        </mxCell>
        <mxCell id="Iom_2p9-gJP5RG_fc04b-44" value="{disjoint, complete}" style="text;html=1;align=center;verticalAlign=middle;resizable=1;points=[];autosize=1;strokeColor=none;fillColor=none;fontFamily=Cascadia Mono;fontSize=8;fontStyle=2;spacing=0;" parent="1" vertex="1">
          <mxGeometry x="580" y="3750" width="110" height="20" as="geometry" />
        </mxCell>
        <mxCell id="Iom_2p9-gJP5RG_fc04b-45" value="" style="endArrow=none;html=1;rounded=0;flowAnimation=0;shadow=0;anchorPointDirection=1;curved=0;exitX=1;exitY=0;exitDx=0;exitDy=0;exitPerimeter=0;" parent="1" source="Iom_2p9-gJP5RG_fc04b-9" edge="1">
          <mxGeometry width="50" height="50" relative="1" as="geometry">
            <mxPoint x="550.5600000000002" y="4270" as="sourcePoint" />
            <mxPoint x="490" y="3950" as="targetPoint" />
            <Array as="points">
              <mxPoint x="760" y="4270" />
              <mxPoint x="760" y="3950" />
            </Array>
          </mxGeometry>
        </mxCell>
        <mxCell id="Iom_2p9-gJP5RG_fc04b-46" value="1..*" style="text;html=1;align=center;verticalAlign=middle;resizable=1;points=[];autosize=1;strokeColor=none;fillColor=none;fontFamily=Cascadia Mono;fontSize=8;spacing=0;" parent="1" vertex="1">
          <mxGeometry x="490" y="3950" width="40" height="10" as="geometry" />
        </mxCell>
        <mxCell id="Iom_2p9-gJP5RG_fc04b-47" value="0..*" style="text;html=1;align=center;verticalAlign=middle;resizable=1;points=[];autosize=1;strokeColor=none;fillColor=none;fontFamily=Cascadia Mono;fontSize=8;spacing=0;" parent="1" vertex="1">
          <mxGeometry x="499.72" y="4260" width="40" height="10" as="geometry" />
        </mxCell>
        <mxCell id="Iom_2p9-gJP5RG_fc04b-48" value="" style="endArrow=none;dashed=1;html=1;rounded=1;entryX=0;entryY=0.5;entryDx=0;entryDy=0;entryPerimeter=0;curved=0;" parent="1" target="Iom_2p9-gJP5RG_fc04b-99" edge="1">
          <mxGeometry width="50" height="50" relative="1" as="geometry">
            <mxPoint x="410" y="4170" as="sourcePoint" />
            <mxPoint x="610.0099999999998" y="4210" as="targetPoint" />
            <Array as="points" />
          </mxGeometry>
        </mxCell>
        <mxCell id="Iom_2p9-gJP5RG_fc04b-49" value="" style="endArrow=none;html=1;rounded=1;flowAnimation=0;shadow=0;anchorPointDirection=1;curved=0;exitX=0.125;exitY=0;exitDx=0;exitDy=0;exitPerimeter=0;entryX=0;entryY=0;entryDx=0;entryDy=0;entryPerimeter=0;" parent="1" source="Iom_2p9-gJP5RG_fc04b-20" target="Iom_2p9-gJP5RG_fc04b-53" edge="1">
          <mxGeometry width="50" height="50" relative="1" as="geometry">
            <mxPoint x="510" y="4100" as="sourcePoint" />
            <mxPoint x="450" y="3870" as="targetPoint" />
            <Array as="points" />
          </mxGeometry>
        </mxCell>
        <mxCell id="Iom_2p9-gJP5RG_fc04b-50" value="" style="endArrow=none;html=1;rounded=1;flowAnimation=0;shadow=0;anchorPointDirection=1;curved=0;entryX=0.014;entryY=0;entryDx=0;entryDy=0;entryPerimeter=0;exitX=0;exitY=1;exitDx=0;exitDy=0;exitPerimeter=0;" parent="1" source="Iom_2p9-gJP5RG_fc04b-52" target="Iom_2p9-gJP5RG_fc04b-54" edge="1">
          <mxGeometry width="50" height="50" relative="1" as="geometry">
            <mxPoint x="410" y="4100" as="sourcePoint" />
            <mxPoint x="410" y="3810" as="targetPoint" />
            <Array as="points" />
          </mxGeometry>
        </mxCell>
        <mxCell id="Iom_2p9-gJP5RG_fc04b-51" value="0..*" style="text;html=1;align=center;verticalAlign=middle;resizable=1;points=[];autosize=1;strokeColor=none;fillColor=none;fontFamily=Cascadia Mono;fontSize=8;spacing=0;" parent="1" vertex="1">
          <mxGeometry x="450" y="4180" width="40" height="20" as="geometry" />
        </mxCell>
        <mxCell id="Iom_2p9-gJP5RG_fc04b-52" value="0..*" style="text;html=1;align=center;verticalAlign=middle;resizable=1;points=[];autosize=1;strokeColor=none;fillColor=none;fontFamily=Cascadia Mono;fontSize=8;spacing=0;" parent="1" vertex="1">
          <mxGeometry x="410" y="4180" width="40" height="20" as="geometry" />
        </mxCell>
        <mxCell id="Iom_2p9-gJP5RG_fc04b-53" value="2..2" style="text;html=1;align=center;verticalAlign=middle;resizable=1;points=[];autosize=1;strokeColor=none;fillColor=none;fontFamily=Cascadia Mono;fontSize=8;spacing=0;" parent="1" vertex="1">
          <mxGeometry x="450" y="3960" width="40" height="20" as="geometry" />
        </mxCell>
        <mxCell id="Iom_2p9-gJP5RG_fc04b-54" value="1..*" style="text;html=1;align=center;verticalAlign=middle;resizable=1;points=[];autosize=1;strokeColor=none;fillColor=none;fontFamily=Cascadia Mono;fontSize=8;spacing=0;" parent="1" vertex="1">
          <mxGeometry x="409.44000000000005" y="3960" width="40" height="20" as="geometry" />
        </mxCell>
        <mxCell id="Iom_2p9-gJP5RG_fc04b-55" value="" style="endArrow=none;html=1;rounded=1;flowAnimation=0;shadow=0;anchorPointDirection=1;curved=0;exitX=0.993;exitY=0;exitDx=0;exitDy=0;exitPerimeter=0;entryX=0.993;entryY=1;entryDx=0;entryDy=0;entryPerimeter=0;" parent="1" source="Iom_2p9-gJP5RG_fc04b-58" target="Iom_2p9-gJP5RG_fc04b-57" edge="1">
          <mxGeometry x="-0.0005" width="50" height="50" relative="1" as="geometry">
            <mxPoint x="249.72000000000003" y="4110" as="sourcePoint" />
            <mxPoint x="249.72000000000003" y="3620" as="targetPoint" />
            <Array as="points">
              <mxPoint x="240" y="4210" />
              <mxPoint x="240" y="3700" />
            </Array>
            <mxPoint as="offset" />
          </mxGeometry>
        </mxCell>
        <mxCell id="Iom_2p9-gJP5RG_fc04b-56" value="group_message" style="text;html=1;align=center;verticalAlign=middle;resizable=1;points=[];autosize=1;strokeColor=none;fillColor=none;fontFamily=Cascadia Mono;fontSize=10;fontStyle=0;labelBackgroundColor=default;spacing=0;" parent="1" vertex="1">
          <mxGeometry x="200" y="3945" width="100" height="20" as="geometry" />
        </mxCell>
        <mxCell id="Iom_2p9-gJP5RG_fc04b-57" value="1..1" style="text;html=1;align=center;verticalAlign=middle;resizable=1;points=[];autosize=1;strokeColor=none;fillColor=none;fontFamily=Cascadia Mono;fontSize=8;spacing=0;" parent="1" vertex="1">
          <mxGeometry x="280.28" y="3680" width="40" height="20" as="geometry" />
        </mxCell>
        <mxCell id="Iom_2p9-gJP5RG_fc04b-58" value="0..*" style="text;html=1;align=center;verticalAlign=middle;resizable=1;points=[];autosize=1;strokeColor=none;fillColor=none;fontFamily=Cascadia Mono;fontSize=8;spacing=0;" parent="1" vertex="1">
          <mxGeometry x="300.28" y="4210" width="40" height="20" as="geometry" />
        </mxCell>
        <mxCell id="Iom_2p9-gJP5RG_fc04b-59" value="message_user" style="swimlane;fontStyle=0;align=center;verticalAlign=middle;childLayout=stackLayout;horizontal=1;startSize=20;horizontalStack=0;resizeParent=1;resizeLast=0;collapsible=0;marginBottom=0;rounded=0;shadow=0;strokeWidth=1;fontFamily=Cascadia Mono;fontSize=10;swimlaneLine=1;fillColor=default;glass=0;html=1;noLabel=0;snapToPoint=0;fixDash=0;" parent="1" vertex="1">
          <mxGeometry x="590" y="4140" width="80" height="20" as="geometry">
            <mxRectangle x="220" y="130" width="160" height="26" as="alternateBounds" />
          </mxGeometry>
        </mxCell>
        <mxCell id="Iom_2p9-gJP5RG_fc04b-60" value="" style="endArrow=block;html=1;rounded=1;curved=0;endFill=0;strokeWidth=1;fontFamily=Cascadia Mono;fontSize=10;startSize=6;endSize=10;entryX=0;entryY=0.5;entryDx=0;entryDy=0;entryPerimeter=0;exitX=1;exitY=0.5;exitDx=0;exitDy=0;exitPerimeter=0;" parent="1" source="Iom_2p9-gJP5RG_fc04b-98" target="Iom_2p9-gJP5RG_fc04b-59" edge="1">
          <mxGeometry width="50" height="50" relative="1" as="geometry">
            <mxPoint x="610" y="4190" as="sourcePoint" />
            <mxPoint x="630" y="4160" as="targetPoint" />
            <Array as="points">
              <mxPoint x="570" y="4130" />
              <mxPoint x="570" y="4150" />
            </Array>
          </mxGeometry>
        </mxCell>
        <mxCell id="Iom_2p9-gJP5RG_fc04b-61" value="" style="endArrow=block;html=1;rounded=1;curved=0;endFill=0;fontFamily=Cascadia Mono;fontSize=10;startSize=6;endSize=10;exitX=1;exitY=0.5;exitDx=0;exitDy=0;exitPerimeter=0;" parent="1" source="Iom_2p9-gJP5RG_fc04b-99" edge="1">
          <mxGeometry width="50" height="50" relative="1" as="geometry">
            <mxPoint x="650.0099999999998" y="4190" as="sourcePoint" />
            <mxPoint x="590" y="4150" as="targetPoint" />
            <Array as="points">
              <mxPoint x="570" y="4170" />
              <mxPoint x="570" y="4150" />
            </Array>
          </mxGeometry>
        </mxCell>
        <mxCell id="Iom_2p9-gJP5RG_fc04b-62" value="{disjoint, complete}" style="text;html=1;align=center;verticalAlign=middle;resizable=1;points=[];autosize=1;strokeColor=none;fillColor=none;fontFamily=Cascadia Mono;fontSize=8;fontStyle=2;spacing=0;" parent="1" vertex="1">
          <mxGeometry x="460" y="4140" width="110" height="20" as="geometry" />
        </mxCell>
        <mxCell id="Iom_2p9-gJP5RG_fc04b-63" value="message_recv" style="swimlane;fontStyle=0;align=center;verticalAlign=middle;childLayout=stackLayout;horizontal=1;startSize=20;horizontalStack=0;resizeParent=1;resizeLast=0;collapsible=0;marginBottom=0;rounded=0;shadow=0;strokeWidth=1;fontFamily=Cascadia Mono;fontSize=10;swimlaneLine=1;fillColor=default;glass=0;html=1;noLabel=0;snapToPoint=0;fixDash=0;" parent="1" vertex="1">
          <mxGeometry x="510" y="4030" width="100" height="40" as="geometry">
            <mxRectangle x="220" y="130" width="160" height="26" as="alternateBounds" />
          </mxGeometry>
        </mxCell>
        <mxCell id="Iom_2p9-gJP5RG_fc04b-64" value="recv: &lt;b style=&quot;font-size: 10px;&quot;&gt;Timestamp&lt;/b&gt;" style="text;align=left;verticalAlign=middle;spacingLeft=4;spacingRight=4;overflow=hidden;rotatable=0;points=[[0,0.5],[1,0.5]];portConstraint=eastwest;fontFamily=Cascadia Mono;fontStyle=0;fontSize=10;html=1;glass=0;" parent="Iom_2p9-gJP5RG_fc04b-63" vertex="1">
          <mxGeometry y="20" width="100" height="20" as="geometry" />
        </mxCell>
        <mxCell id="Iom_2p9-gJP5RG_fc04b-65" value="message_sender" style="swimlane;fontStyle=0;align=center;verticalAlign=middle;childLayout=stackLayout;horizontal=1;startSize=20;horizontalStack=0;resizeParent=1;resizeLast=0;collapsible=0;marginBottom=0;rounded=0;shadow=0;strokeWidth=1;fontFamily=Cascadia Mono;fontSize=10;swimlaneLine=1;fillColor=default;glass=0;html=1;noLabel=0;snapToPoint=0;fixDash=0;" parent="1" vertex="1">
          <mxGeometry x="640" y="4090" width="100" height="20" as="geometry">
            <mxRectangle x="220" y="130" width="160" height="26" as="alternateBounds" />
          </mxGeometry>
        </mxCell>
        <mxCell id="Iom_2p9-gJP5RG_fc04b-66" value="" style="endArrow=block;html=1;rounded=1;curved=0;endFill=0;fontFamily=Cascadia Mono;fontSize=10;startSize=6;endSize=10;exitX=0.917;exitY=1;exitDx=0;exitDy=0;exitPerimeter=0;" parent="1" source="Iom_2p9-gJP5RG_fc04b-94" edge="1">
          <mxGeometry width="50" height="50" relative="1" as="geometry">
            <mxPoint x="610" y="4110" as="sourcePoint" />
            <mxPoint x="630" y="4140" as="targetPoint" />
            <Array as="points">
              <mxPoint x="610" y="4120" />
              <mxPoint x="630" y="4120" />
            </Array>
          </mxGeometry>
        </mxCell>
        <mxCell id="Iom_2p9-gJP5RG_fc04b-67" value="" style="endArrow=block;html=1;rounded=1;curved=0;endFill=0;fontFamily=Cascadia Mono;fontSize=10;startSize=6;endSize=10;exitX=0.111;exitY=1;exitDx=0;exitDy=0;exitPerimeter=0;" parent="1" source="Iom_2p9-gJP5RG_fc04b-65" edge="1">
          <mxGeometry width="50" height="50" relative="1" as="geometry">
            <mxPoint x="650" y="4110" as="sourcePoint" />
            <mxPoint x="630" y="4140" as="targetPoint" />
            <Array as="points">
              <mxPoint x="650" y="4120" />
              <mxPoint x="630" y="4120" />
            </Array>
          </mxGeometry>
        </mxCell>
        <mxCell id="Iom_2p9-gJP5RG_fc04b-68" value="{disjoint, complete}" style="text;html=1;align=center;verticalAlign=middle;resizable=1;points=[];autosize=1;strokeColor=none;fillColor=none;fontFamily=Cascadia Mono;fontSize=8;fontStyle=2;spacing=0;" parent="1" vertex="1">
          <mxGeometry x="630" y="4120" width="110" height="20" as="geometry" />
        </mxCell>
        <mxCell id="Iom_2p9-gJP5RG_fc04b-69" value="message_read" style="swimlane;fontStyle=0;align=center;verticalAlign=middle;childLayout=stackLayout;horizontal=1;startSize=20;horizontalStack=0;resizeParent=1;resizeLast=0;collapsible=0;marginBottom=0;rounded=0;shadow=0;strokeWidth=1;fontFamily=Cascadia Mono;fontSize=10;swimlaneLine=1;fillColor=default;glass=0;html=1;noLabel=0;snapToPoint=0;fixDash=0;" parent="1" vertex="1">
          <mxGeometry x="510" y="3970" width="100" height="40" as="geometry">
            <mxRectangle x="220" y="130" width="160" height="26" as="alternateBounds" />
          </mxGeometry>
        </mxCell>
        <mxCell id="Iom_2p9-gJP5RG_fc04b-70" value="read: &lt;b style=&quot;font-size: 10px;&quot;&gt;Timestamp&lt;/b&gt;" style="text;align=left;verticalAlign=middle;spacingLeft=4;spacingRight=4;overflow=hidden;rotatable=0;points=[[0,0.5],[1,0.5]];portConstraint=eastwest;fontFamily=Cascadia Mono;fontStyle=0;fontSize=10;html=1;glass=0;" parent="Iom_2p9-gJP5RG_fc04b-69" vertex="1">
          <mxGeometry y="20" width="100" height="20" as="geometry" />
        </mxCell>
        <mxCell id="Iom_2p9-gJP5RG_fc04b-71" value="" style="endArrow=block;html=1;rounded=1;exitX=0.5;exitY=1;exitDx=0;exitDy=0;curved=0;endFill=0;strokeWidth=1;fontFamily=Cascadia Mono;fontSize=10;startSize=6;endSize=10;" parent="1" edge="1">
          <mxGeometry width="50" height="50" relative="1" as="geometry">
            <mxPoint x="560" y="4010" as="sourcePoint" />
            <mxPoint x="560" y="4030" as="targetPoint" />
            <Array as="points" />
          </mxGeometry>
        </mxCell>
        <mxCell id="Iom_2p9-gJP5RG_fc04b-72" value="comment_user" style="swimlane;fontStyle=1;align=center;verticalAlign=middle;childLayout=stackLayout;horizontal=1;startSize=20;horizontalStack=0;resizeParent=1;resizeLast=0;collapsible=0;marginBottom=0;rounded=0;shadow=0;strokeWidth=1;fontFamily=Cascadia Mono;fontSize=10;swimlaneLine=1;fillColor=default;glass=0;html=1;noLabel=0;snapToPoint=0;fixDash=0;" parent="1" vertex="1">
          <mxGeometry x="590" y="4180" width="80" height="40" as="geometry">
            <mxRectangle x="220" y="130" width="160" height="26" as="alternateBounds" />
          </mxGeometry>
        </mxCell>
        <mxCell id="Iom_2p9-gJP5RG_fc04b-73" value="emoji: &lt;b style=&quot;font-size: 10px;&quot;&gt;Emoji&lt;/b&gt;" style="text;align=left;verticalAlign=middle;spacingLeft=4;spacingRight=4;overflow=hidden;rotatable=0;points=[[0,0.5],[1,0.5]];portConstraint=eastwest;fontFamily=Cascadia Mono;fontStyle=0;fontSize=10;html=1;" parent="Iom_2p9-gJP5RG_fc04b-72" vertex="1">
          <mxGeometry y="20" width="80" height="20" as="geometry" />
        </mxCell>
        <mxCell id="Iom_2p9-gJP5RG_fc04b-74" value="" style="endArrow=none;dashed=1;html=1;rounded=0;entryX=0;entryY=0.5;entryDx=0;entryDy=0;entryPerimeter=0;" parent="1" edge="1">
          <mxGeometry width="50" height="50" relative="1" as="geometry">
            <mxPoint x="450" y="4130" as="sourcePoint" />
            <mxPoint x="470" y="4130" as="targetPoint" />
          </mxGeometry>
        </mxCell>
        <mxCell id="Iom_2p9-gJP5RG_fc04b-75" value="" style="endArrow=none;dashed=1;html=1;rounded=0;entryX=1;entryY=0.5;entryDx=0;entryDy=0;entryPerimeter=0;" parent="1" target="Iom_2p9-gJP5RG_fc04b-59" edge="1">
          <mxGeometry width="50" height="50" relative="1" as="geometry">
            <mxPoint x="760" y="4150" as="sourcePoint" />
            <mxPoint x="700" y="4149.8099999999995" as="targetPoint" />
          </mxGeometry>
        </mxCell>
        <mxCell id="Iom_2p9-gJP5RG_fc04b-76" value="" style="endArrow=none;dashed=1;html=1;rounded=0;entryX=1;entryY=0.494;entryDx=0;entryDy=0;entryPerimeter=0;" parent="1" target="Iom_2p9-gJP5RG_fc04b-63" edge="1">
          <mxGeometry width="50" height="50" relative="1" as="geometry">
            <mxPoint x="790" y="4050" as="sourcePoint" />
            <mxPoint x="620" y="4049.77" as="targetPoint" />
          </mxGeometry>
        </mxCell>
        <mxCell id="Iom_2p9-gJP5RG_fc04b-77" value="" style="endArrow=none;dashed=1;html=1;rounded=0;entryX=1;entryY=0;entryDx=0;entryDy=0;entryPerimeter=0;" parent="1" target="Iom_2p9-gJP5RG_fc04b-70" edge="1">
          <mxGeometry width="50" height="50" relative="1" as="geometry">
            <mxPoint x="800" y="3990" as="sourcePoint" />
            <mxPoint x="630" y="3990" as="targetPoint" />
          </mxGeometry>
        </mxCell>
        <mxCell id="Iom_2p9-gJP5RG_fc04b-78" value="" style="endArrow=none;dashed=1;html=1;rounded=0;" parent="1" edge="1">
          <mxGeometry width="50" height="50" relative="1" as="geometry">
            <mxPoint x="770" y="4099.73" as="sourcePoint" />
            <mxPoint x="740" y="4099.73" as="targetPoint" />
          </mxGeometry>
        </mxCell>
        <mxCell id="Iom_2p9-gJP5RG_fc04b-79" value="" style="endArrow=none;html=1;rounded=0;flowAnimation=0;shadow=0;anchorPointDirection=1;curved=0;exitX=1;exitY=0.5;exitDx=0;exitDy=0;exitPerimeter=0;" parent="1" source="Iom_2p9-gJP5RG_fc04b-9" edge="1">
          <mxGeometry width="50" height="50" relative="1" as="geometry">
            <mxPoint x="550" y="4280" as="sourcePoint" />
            <mxPoint x="490" y="3940" as="targetPoint" />
            <Array as="points">
              <mxPoint x="770" y="4280" />
              <mxPoint x="770" y="3940" />
            </Array>
          </mxGeometry>
        </mxCell>
        <mxCell id="Iom_2p9-gJP5RG_fc04b-80" value="" style="endArrow=none;html=1;rounded=0;flowAnimation=0;shadow=0;anchorPointDirection=1;curved=0;" parent="1" edge="1">
          <mxGeometry width="50" height="50" relative="1" as="geometry">
            <mxPoint x="500" y="4290" as="sourcePoint" />
            <mxPoint x="490" y="3930" as="targetPoint" />
            <Array as="points">
              <mxPoint x="780" y="4290" />
              <mxPoint x="780" y="3930" />
            </Array>
          </mxGeometry>
        </mxCell>
        <mxCell id="Iom_2p9-gJP5RG_fc04b-81" value="" style="endArrow=none;html=1;rounded=0;flowAnimation=0;shadow=0;anchorPointDirection=1;curved=0;exitX=1;exitY=0.491;exitDx=0;exitDy=0;exitPerimeter=0;entryX=1;entryY=1;entryDx=0;entryDy=0;entryPerimeter=0;" parent="1" source="Iom_2p9-gJP5RG_fc04b-11" target="Iom_2p9-gJP5RG_fc04b-30" edge="1">
          <mxGeometry width="50" height="50" relative="1" as="geometry">
            <mxPoint x="550" y="4300" as="sourcePoint" />
            <mxPoint x="560" y="3810" as="targetPoint" />
            <Array as="points">
              <mxPoint x="790.1399999999999" y="4300" />
              <mxPoint x="790" y="3920" />
            </Array>
          </mxGeometry>
        </mxCell>
        <mxCell id="Iom_2p9-gJP5RG_fc04b-82" value="" style="endArrow=none;html=1;rounded=0;flowAnimation=0;shadow=0;anchorPointDirection=1;curved=0;exitX=1;exitY=0;exitDx=0;exitDy=0;exitPerimeter=0;entryX=1;entryY=0.5;entryDx=0;entryDy=0;entryPerimeter=0;" parent="1" source="Iom_2p9-gJP5RG_fc04b-12" target="Iom_2p9-gJP5RG_fc04b-30" edge="1">
          <mxGeometry width="50" height="50" relative="1" as="geometry">
            <mxPoint x="550" y="4310" as="sourcePoint" />
            <mxPoint x="550" y="3820" as="targetPoint" />
            <Array as="points">
              <mxPoint x="800" y="4310" />
              <mxPoint x="800" y="3910" />
            </Array>
          </mxGeometry>
        </mxCell>
        <mxCell id="Iom_2p9-gJP5RG_fc04b-83" value="0..*" style="text;html=1;align=center;verticalAlign=middle;resizable=1;points=[];autosize=1;strokeColor=none;fillColor=none;fontFamily=Cascadia Mono;fontSize=8;spacing=0;" parent="1" vertex="1">
          <mxGeometry x="500" y="4270" width="40" height="10" as="geometry" />
        </mxCell>
        <mxCell id="Iom_2p9-gJP5RG_fc04b-84" value="0..*" style="text;html=1;align=center;verticalAlign=middle;resizable=1;points=[];autosize=1;strokeColor=none;fillColor=none;fontFamily=Cascadia Mono;fontSize=8;spacing=0;" parent="1" vertex="1">
          <mxGeometry x="499.72000000000025" y="4280" width="40" height="10" as="geometry" />
        </mxCell>
        <mxCell id="Iom_2p9-gJP5RG_fc04b-85" value="0..*" style="text;html=1;align=center;verticalAlign=middle;resizable=1;points=[];autosize=1;strokeColor=none;fillColor=none;fontFamily=Cascadia Mono;fontSize=8;spacing=0;" parent="1" vertex="1">
          <mxGeometry x="499.72000000000025" y="4290" width="40" height="10" as="geometry" />
        </mxCell>
        <mxCell id="Iom_2p9-gJP5RG_fc04b-86" value="0..*" style="text;html=1;align=center;verticalAlign=middle;resizable=1;points=[];autosize=1;strokeColor=none;fillColor=none;fontFamily=Cascadia Mono;fontSize=8;spacing=0;" parent="1" vertex="1">
          <mxGeometry x="500.0000000000002" y="4300" width="40" height="10" as="geometry" />
        </mxCell>
        <mxCell id="Iom_2p9-gJP5RG_fc04b-87" value="1..1" style="text;html=1;align=center;verticalAlign=middle;resizable=1;points=[];autosize=1;strokeColor=none;fillColor=none;fontFamily=Cascadia Mono;fontSize=8;spacing=0;" parent="1" vertex="1">
          <mxGeometry x="490" y="3940" width="40" height="10" as="geometry" />
        </mxCell>
        <mxCell id="Iom_2p9-gJP5RG_fc04b-88" value="0..*" style="text;html=1;align=center;verticalAlign=middle;resizable=1;points=[];autosize=1;strokeColor=none;fillColor=none;fontFamily=Cascadia Mono;fontSize=8;spacing=0;" parent="1" vertex="1">
          <mxGeometry x="490.28" y="3930" width="40" height="10" as="geometry" />
        </mxCell>
        <mxCell id="Iom_2p9-gJP5RG_fc04b-89" value="0..*" style="text;html=1;align=center;verticalAlign=middle;resizable=1;points=[];autosize=1;strokeColor=none;fillColor=none;fontFamily=Cascadia Mono;fontSize=8;spacing=0;" parent="1" vertex="1">
          <mxGeometry x="490" y="3920" width="40" height="10" as="geometry" />
        </mxCell>
        <mxCell id="Iom_2p9-gJP5RG_fc04b-90" value="0..*" style="text;html=1;align=center;verticalAlign=middle;resizable=1;points=[];autosize=1;strokeColor=none;fillColor=none;fontFamily=Cascadia Mono;fontSize=8;spacing=0;" parent="1" vertex="1">
          <mxGeometry x="490" y="3910" width="40" height="10" as="geometry" />
        </mxCell>
        <mxCell id="Iom_2p9-gJP5RG_fc04b-91" value="MembershipEnd" style="swimlane;fontStyle=1;align=center;verticalAlign=middle;childLayout=stackLayout;horizontal=1;startSize=20;horizontalStack=0;resizeParent=1;resizeLast=0;collapsible=0;marginBottom=0;rounded=0;shadow=0;strokeWidth=1;fontFamily=Cascadia Mono;fontSize=10;swimlaneLine=1;fillColor=default;glass=0;html=1;noLabel=0;snapToPoint=0;fixDash=0;" parent="1" vertex="1">
          <mxGeometry x="250.27999999999997" y="3780" width="100" height="40" as="geometry">
            <mxRectangle x="220" y="130" width="160" height="26" as="alternateBounds" />
          </mxGeometry>
        </mxCell>
        <mxCell id="Iom_2p9-gJP5RG_fc04b-92" value="end: &lt;b&gt;Timestamp&lt;/b&gt;" style="text;align=left;verticalAlign=middle;spacingLeft=4;spacingRight=4;overflow=hidden;rotatable=0;points=[[0,0.5],[1,0.5]];portConstraint=eastwest;fontFamily=Cascadia Mono;fontStyle=0;fontSize=10;html=1;" parent="Iom_2p9-gJP5RG_fc04b-91" vertex="1">
          <mxGeometry y="20" width="100" height="20" as="geometry" />
        </mxCell>
        <mxCell id="Iom_2p9-gJP5RG_fc04b-93" value="" style="endArrow=block;html=1;rounded=1;curved=0;endFill=0;strokeWidth=1;fontFamily=Cascadia Mono;fontSize=10;startSize=6;endSize=10;entryX=0;entryY=0;entryDx=0;entryDy=0;entryPerimeter=0;exitX=1;exitY=0;exitDx=0;exitDy=0;exitPerimeter=0;" parent="1" source="Iom_2p9-gJP5RG_fc04b-92" target="Iom_2p9-gJP5RG_fc04b-28" edge="1">
          <mxGeometry width="50" height="50" relative="1" as="geometry">
            <mxPoint x="370.3800000000001" y="3870" as="sourcePoint" />
            <mxPoint x="370.2800000000002" y="3850" as="targetPoint" />
            <Array as="points" />
          </mxGeometry>
        </mxCell>
        <mxCell id="Iom_2p9-gJP5RG_fc04b-94" value="message_recipient" style="swimlane;fontStyle=0;align=center;verticalAlign=middle;childLayout=stackLayout;horizontal=1;startSize=20;horizontalStack=0;resizeParent=1;resizeLast=0;collapsible=0;marginBottom=0;rounded=0;shadow=0;strokeWidth=1;fontFamily=Cascadia Mono;fontSize=10;swimlaneLine=1;fillColor=default;glass=0;html=1;noLabel=0;snapToPoint=0;fixDash=0;" parent="1" vertex="1">
          <mxGeometry x="500" y="4090" width="120" height="20" as="geometry">
            <mxRectangle x="220" y="130" width="160" height="26" as="alternateBounds" />
          </mxGeometry>
        </mxCell>
        <mxCell id="Iom_2p9-gJP5RG_fc04b-95" value="" style="endArrow=block;html=1;rounded=1;exitX=0.5;exitY=1;exitDx=0;exitDy=0;curved=0;endFill=0;strokeWidth=1;fontFamily=Cascadia Mono;fontSize=10;startSize=6;endSize=10;" parent="1" edge="1">
          <mxGeometry width="50" height="50" relative="1" as="geometry">
            <mxPoint x="559.5300000000002" y="4070" as="sourcePoint" />
            <mxPoint x="559.5300000000002" y="4090" as="targetPoint" />
            <Array as="points" />
          </mxGeometry>
        </mxCell>
        <mxCell id="Iom_2p9-gJP5RG_fc04b-96" value="" style="endArrow=none;dashed=1;html=1;rounded=1;entryX=0.917;entryY=0;entryDx=0;entryDy=0;entryPerimeter=0;curved=0;" parent="1" target="Iom_2p9-gJP5RG_fc04b-94" edge="1">
          <mxGeometry width="50" height="50" relative="1" as="geometry">
            <mxPoint x="780" y="4080" as="sourcePoint" />
            <mxPoint x="610" y="4080" as="targetPoint" />
            <Array as="points">
              <mxPoint x="610" y="4080" />
            </Array>
          </mxGeometry>
        </mxCell>
        <mxCell id="Iom_2p9-gJP5RG_fc04b-97" value="" style="endArrow=block;html=1;rounded=1;curved=0;endFill=0;strokeWidth=1;fontFamily=Cascadia Mono;fontSize=10;startSize=6;endSize=10;entryX=0.5;entryY=1;entryDx=0;entryDy=0;entryPerimeter=0;" parent="1" target="Iom_2p9-gJP5RG_fc04b-59" edge="1">
          <mxGeometry width="50" height="50" relative="1" as="geometry">
            <mxPoint x="630" y="4180" as="sourcePoint" />
            <mxPoint x="640" y="4170" as="targetPoint" />
            <Array as="points" />
          </mxGeometry>
        </mxCell>
        <mxCell id="Iom_2p9-gJP5RG_fc04b-98" value="chat_user" style="swimlane;fontStyle=0;align=center;verticalAlign=middle;childLayout=stackLayout;horizontal=1;startSize=20;horizontalStack=0;resizeParent=1;resizeLast=0;collapsible=0;marginBottom=0;rounded=0;shadow=0;strokeWidth=1;fontFamily=Cascadia Mono;fontSize=10;swimlaneLine=1;fillColor=default;glass=0;html=1;noLabel=0;snapToPoint=0;fixDash=0;" parent="1" vertex="1">
          <mxGeometry x="470" y="4120" width="90" height="20" as="geometry">
            <mxRectangle x="220" y="130" width="160" height="26" as="alternateBounds" />
          </mxGeometry>
        </mxCell>
        <mxCell id="Iom_2p9-gJP5RG_fc04b-99" value="group_user" style="swimlane;fontStyle=0;align=center;verticalAlign=middle;childLayout=stackLayout;horizontal=1;startSize=20;horizontalStack=0;resizeParent=1;resizeLast=0;collapsible=0;marginBottom=0;rounded=0;shadow=0;strokeWidth=1;fontFamily=Cascadia Mono;fontSize=10;swimlaneLine=1;fillColor=default;glass=0;html=1;noLabel=0;snapToPoint=0;fixDash=0;" parent="1" vertex="1">
          <mxGeometry x="470" y="4160" width="90" height="20" as="geometry">
            <mxRectangle x="220" y="130" width="160" height="26" as="alternateBounds" />
          </mxGeometry>
        </mxCell>
        <mxCell id="Iom_2p9-gJP5RG_fc04b-100" value="" style="endArrow=none;html=1;rounded=0;flowAnimation=0;shadow=0;anchorPointDirection=1;curved=0;exitX=1;exitY=0.5;exitDx=0;exitDy=0;exitPerimeter=0;entryX=1;entryY=0;entryDx=0;entryDy=0;entryPerimeter=0;" parent="1" source="Iom_2p9-gJP5RG_fc04b-12" target="Iom_2p9-gJP5RG_fc04b-30" edge="1">
          <mxGeometry width="50" height="50" relative="1" as="geometry">
            <mxPoint x="510" y="4340" as="sourcePoint" />
            <mxPoint x="493" y="3820" as="targetPoint" />
            <Array as="points">
              <mxPoint x="810" y="4320" />
              <mxPoint x="810" y="3900" />
            </Array>
          </mxGeometry>
        </mxCell>
        <mxCell id="Iom_2p9-gJP5RG_fc04b-101" value="0..*" style="text;html=1;align=center;verticalAlign=middle;resizable=1;points=[];autosize=1;strokeColor=none;fillColor=none;fontFamily=Cascadia Mono;fontSize=8;spacing=0;" parent="1" vertex="1">
          <mxGeometry x="499.72" y="4310" width="40" height="10" as="geometry" />
        </mxCell>
        <mxCell id="Iom_2p9-gJP5RG_fc04b-102" value="0..*" style="text;html=1;align=center;verticalAlign=middle;resizable=1;points=[];autosize=1;strokeColor=none;fillColor=none;fontFamily=Cascadia Mono;fontSize=8;spacing=0;" parent="1" vertex="1">
          <mxGeometry x="490" y="3900" width="40" height="10" as="geometry" />
        </mxCell>
        <mxCell id="Iom_2p9-gJP5RG_fc04b-103" value="" style="endArrow=none;dashed=1;html=1;rounded=0;entryX=1;entryY=0;entryDx=0;entryDy=0;entryPerimeter=0;" parent="1" target="Iom_2p9-gJP5RG_fc04b-73" edge="1">
          <mxGeometry width="50" height="50" relative="1" as="geometry">
            <mxPoint x="810" y="4200" as="sourcePoint" />
            <mxPoint x="680" y="4160" as="targetPoint" />
          </mxGeometry>
        </mxCell>
        <mxCell id="Iom_2p9-gJP5RG_fc04b-104" value="Forwarded" style="swimlane;fontStyle=1;align=center;verticalAlign=middle;childLayout=stackLayout;horizontal=1;startSize=20;horizontalStack=0;resizeParent=1;resizeLast=0;collapsible=0;marginBottom=0;rounded=0;shadow=0;strokeWidth=1;fontFamily=Cascadia Mono;fontSize=10;swimlaneLine=1;fillColor=default;glass=0;html=1;noLabel=0;snapToPoint=0;fixDash=0;" parent="1" vertex="1">
          <mxGeometry x="310" y="4360" width="60" height="20" as="geometry">
            <mxRectangle x="220" y="130" width="160" height="26" as="alternateBounds" />
          </mxGeometry>
        </mxCell>
        <mxCell id="Iom_2p9-gJP5RG_fc04b-105" value="" style="endArrow=block;html=1;rounded=1;curved=0;endFill=0;strokeWidth=1;fontFamily=Cascadia Mono;fontSize=10;startSize=6;endSize=10;exitX=0.833;exitY=0;exitDx=0;exitDy=0;exitPerimeter=0;" parent="1" source="Iom_2p9-gJP5RG_fc04b-104" edge="1">
          <mxGeometry width="50" height="50" relative="1" as="geometry">
            <mxPoint x="410.6199999999999" y="4370" as="sourcePoint" />
            <mxPoint x="380" y="4330" as="targetPoint" />
            <Array as="points">
              <mxPoint x="360" y="4350" />
              <mxPoint x="380" y="4350" />
            </Array>
          </mxGeometry>
        </mxCell>
        <mxCell id="Iom_2p9-gJP5RG_fc04b-106" value="{disjoint}" style="text;html=1;align=center;verticalAlign=middle;resizable=1;points=[];autosize=1;strokeColor=none;fillColor=none;fontFamily=Cascadia Mono;fontSize=8;fontStyle=2;spacing=0;" parent="1" vertex="1">
          <mxGeometry x="380" y="4330" width="70" height="20" as="geometry" />
        </mxCell>
        <mxCell id="Iom_2p9-gJP5RG_fc04b-107" value="String" style="swimlane;fontStyle=1;align=center;verticalAlign=middle;childLayout=stackLayout;horizontal=1;startSize=20;horizontalStack=0;resizeParent=1;resizeLast=0;collapsible=0;marginBottom=0;rounded=0;shadow=0;strokeWidth=1;fontFamily=Cascadia Mono;fontSize=10;swimlaneLine=1;fillColor=default;glass=0;html=1;noLabel=0;snapToPoint=0;fixDash=0;" parent="1" vertex="1">
          <mxGeometry x="892.5" y="3740" width="55" height="40" as="geometry">
            <mxRectangle x="220" y="130" width="160" height="26" as="alternateBounds" />
          </mxGeometry>
        </mxCell>
        <mxCell id="Iom_2p9-gJP5RG_fc04b-110" value="Character" style="swimlane;fontStyle=1;align=center;verticalAlign=middle;childLayout=stackLayout;horizontal=1;startSize=20;horizontalStack=0;resizeParent=1;resizeLast=0;collapsible=0;marginBottom=0;rounded=0;shadow=0;strokeWidth=1;fontFamily=Cascadia Mono;fontSize=10;swimlaneLine=1;fillColor=default;glass=0;html=1;noLabel=0;snapToPoint=0;fixDash=0;" parent="1" vertex="1">
          <mxGeometry x="890" y="3830" width="60" height="40" as="geometry">
            <mxRectangle x="220" y="130" width="160" height="26" as="alternateBounds" />
          </mxGeometry>
        </mxCell>
        <mxCell id="Iom_2p9-gJP5RG_fc04b-113" value="" style="endArrow=none;html=1;rounded=1;flowAnimation=0;shadow=0;anchorPointDirection=1;curved=0;entryX=0;entryY=0;entryDx=0;entryDy=0;entryPerimeter=0;" parent="1" edge="1">
          <mxGeometry width="50" height="50" relative="1" as="geometry">
            <mxPoint x="920" y="3830" as="sourcePoint" />
            <mxPoint x="920" y="3780" as="targetPoint" />
            <Array as="points" />
          </mxGeometry>
        </mxCell>
        <mxCell id="Iom_2p9-gJP5RG_fc04b-114" value="Number" style="swimlane;fontStyle=1;align=center;verticalAlign=middle;childLayout=stackLayout;horizontal=1;startSize=20;horizontalStack=0;resizeParent=1;resizeLast=0;collapsible=0;marginBottom=0;rounded=0;shadow=0;strokeWidth=1;fontFamily=Cascadia Mono;fontSize=10;swimlaneLine=1;fillColor=default;glass=0;html=1;noLabel=0;snapToPoint=0;fixDash=0;" parent="1" vertex="1">
          <mxGeometry x="1170" y="3870" width="80" height="40" as="geometry">
            <mxRectangle x="220" y="130" width="160" height="26" as="alternateBounds" />
          </mxGeometry>
        </mxCell>
        <mxCell id="Iom_2p9-gJP5RG_fc04b-115" value="Integer" style="swimlane;fontStyle=1;align=center;verticalAlign=middle;childLayout=stackLayout;horizontal=1;startSize=20;horizontalStack=0;resizeParent=1;resizeLast=0;collapsible=0;marginBottom=0;rounded=0;shadow=0;strokeWidth=1;fontFamily=Cascadia Mono;fontSize=10;swimlaneLine=1;fillColor=default;glass=0;html=1;noLabel=0;snapToPoint=0;fixDash=0;" parent="1" vertex="1">
          <mxGeometry x="1120" y="3800" width="80" height="40" as="geometry">
            <mxRectangle x="220" y="130" width="160" height="26" as="alternateBounds" />
          </mxGeometry>
        </mxCell>
        <mxCell id="Iom_2p9-gJP5RG_fc04b-116" value="Float" style="swimlane;fontStyle=1;align=center;verticalAlign=middle;childLayout=stackLayout;horizontal=1;startSize=20;horizontalStack=0;resizeParent=1;resizeLast=0;collapsible=0;marginBottom=0;rounded=0;shadow=0;strokeWidth=1;fontFamily=Cascadia Mono;fontSize=10;swimlaneLine=1;fillColor=default;glass=0;html=1;noLabel=0;snapToPoint=0;fixDash=0;" parent="1" vertex="1">
          <mxGeometry x="1210" y="3800" width="80" height="40" as="geometry">
            <mxRectangle x="220" y="130" width="160" height="26" as="alternateBounds" />
          </mxGeometry>
        </mxCell>
        <mxCell id="Iom_2p9-gJP5RG_fc04b-117" value="" style="endArrow=block;html=1;rounded=1;curved=0;endFill=0;fontFamily=Cascadia Mono;fontSize=10;startSize=6;endSize=10;exitX=0.917;exitY=1;exitDx=0;exitDy=0;exitPerimeter=0;" parent="1" edge="1">
          <mxGeometry width="50" height="50" relative="1" as="geometry">
            <mxPoint x="1190" y="3840" as="sourcePoint" />
            <mxPoint x="1210" y="3870" as="targetPoint" />
            <Array as="points">
              <mxPoint x="1190" y="3850" />
              <mxPoint x="1210" y="3850" />
            </Array>
          </mxGeometry>
        </mxCell>
        <mxCell id="Iom_2p9-gJP5RG_fc04b-118" value="" style="endArrow=block;html=1;rounded=1;curved=0;endFill=0;fontFamily=Cascadia Mono;fontSize=10;startSize=6;endSize=10;exitX=0.111;exitY=1;exitDx=0;exitDy=0;exitPerimeter=0;" parent="1" edge="1">
          <mxGeometry width="50" height="50" relative="1" as="geometry">
            <mxPoint x="1231" y="3840" as="sourcePoint" />
            <mxPoint x="1210" y="3870" as="targetPoint" />
            <Array as="points">
              <mxPoint x="1230" y="3850" />
              <mxPoint x="1210" y="3850" />
            </Array>
          </mxGeometry>
        </mxCell>
        <mxCell id="Iom_2p9-gJP5RG_fc04b-119" value="{disjoint, complete}" style="text;html=1;align=center;verticalAlign=middle;resizable=1;points=[];autosize=1;strokeColor=none;fillColor=none;fontFamily=Cascadia Mono;fontSize=8;fontStyle=2;spacing=0;" parent="1" vertex="1">
          <mxGeometry x="1210" y="3850" width="110" height="20" as="geometry" />
        </mxCell>
        <mxCell id="Iom_2p9-gJP5RG_fc04b-120" value="Enumeration" style="swimlane;fontStyle=1;align=center;verticalAlign=middle;childLayout=stackLayout;horizontal=1;startSize=20;horizontalStack=0;resizeParent=1;resizeLast=0;collapsible=0;marginBottom=0;rounded=0;shadow=0;strokeWidth=1;fontFamily=Cascadia Mono;fontSize=10;swimlaneLine=1;fillColor=default;glass=0;html=1;noLabel=0;snapToPoint=0;fixDash=0;" parent="1" vertex="1">
          <mxGeometry x="1120" y="3680" width="80" height="40" as="geometry">
            <mxRectangle x="220" y="130" width="160" height="26" as="alternateBounds" />
          </mxGeometry>
        </mxCell>
        <mxCell id="Iom_2p9-gJP5RG_fc04b-121" value="List" style="swimlane;fontStyle=1;align=center;verticalAlign=middle;childLayout=stackLayout;horizontal=1;startSize=20;horizontalStack=0;resizeParent=1;resizeLast=0;collapsible=0;marginBottom=0;rounded=0;shadow=0;strokeWidth=1;fontFamily=Cascadia Mono;fontSize=10;swimlaneLine=1;fillColor=default;glass=0;html=1;noLabel=0;snapToPoint=0;fixDash=0;" parent="1" vertex="1">
          <mxGeometry x="990" y="3740" width="50" height="40" as="geometry">
            <mxRectangle x="220" y="130" width="160" height="26" as="alternateBounds" />
          </mxGeometry>
        </mxCell>
        <mxCell id="Iom_2p9-gJP5RG_fc04b-123" value="" style="endArrow=none;html=1;rounded=1;flowAnimation=0;shadow=0;anchorPointDirection=1;curved=0;entryX=0.25;entryY=1;entryDx=0;entryDy=0;" parent="1" target="Iom_2p9-gJP5RG_fc04b-120" edge="1">
          <mxGeometry width="50" height="50" relative="1" as="geometry">
            <mxPoint x="1140" y="3800" as="sourcePoint" />
            <mxPoint x="1140" y="3750" as="targetPoint" />
            <Array as="points" />
          </mxGeometry>
        </mxCell>
        <mxCell id="Iom_2p9-gJP5RG_fc04b-124" value="" style="endArrow=none;html=1;rounded=1;flowAnimation=0;shadow=0;anchorPointDirection=1;curved=0;entryX=0.25;entryY=1;entryDx=0;entryDy=0;" parent="1" edge="1">
          <mxGeometry width="50" height="50" relative="1" as="geometry">
            <mxPoint x="1159.57" y="3800" as="sourcePoint" />
            <mxPoint x="1159.57" y="3720" as="targetPoint" />
            <Array as="points" />
          </mxGeometry>
        </mxCell>
        <mxCell id="Iom_2p9-gJP5RG_fc04b-125" value="integer_from" style="text;html=1;align=center;verticalAlign=middle;resizable=1;points=[];autosize=1;strokeColor=none;fillColor=none;fontFamily=Cascadia Mono;fontSize=10;fontStyle=0;labelBackgroundColor=default;spacing=0;" parent="1" vertex="1">
          <mxGeometry x="1070" y="3770" width="80" height="20" as="geometry" />
        </mxCell>
        <mxCell id="Iom_2p9-gJP5RG_fc04b-126" value="integer_to" style="text;html=1;align=center;verticalAlign=middle;resizable=1;points=[];autosize=1;strokeColor=none;fillColor=none;fontFamily=Cascadia Mono;fontSize=10;fontStyle=0;labelBackgroundColor=default;spacing=0;" parent="1" vertex="1">
          <mxGeometry x="1050" y="3750" width="80" height="20" as="geometry" />
        </mxCell>
        <mxCell id="Iom_2p9-gJP5RG_fc04b-128" value="" style="endArrow=block;html=1;rounded=1;curved=0;endFill=0;fontFamily=Cascadia Mono;fontSize=10;startSize=6;endSize=10;entryX=0;entryY=0.5;entryDx=0;entryDy=0;exitX=1;exitY=0.5;exitDx=0;exitDy=0;" parent="1" source="Iom_2p9-gJP5RG_fc04b-107" target="Iom_2p9-gJP5RG_fc04b-121" edge="1">
          <mxGeometry width="50" height="50" relative="1" as="geometry">
            <mxPoint x="950" y="3760" as="sourcePoint" />
            <mxPoint x="1220" y="3880" as="targetPoint" />
            <Array as="points" />
          </mxGeometry>
        </mxCell>
        <mxCell id="Iom_2p9-gJP5RG_fc04b-129" value="" style="endArrow=block;html=1;rounded=1;curved=0;endFill=0;fontFamily=Cascadia Mono;fontSize=10;startSize=6;endSize=10;entryX=0.5;entryY=0;entryDx=0;entryDy=0;exitX=0;exitY=0.5;exitDx=0;exitDy=0;" parent="1" source="Iom_2p9-gJP5RG_fc04b-120" target="Iom_2p9-gJP5RG_fc04b-121" edge="1">
          <mxGeometry width="50" height="50" relative="1" as="geometry">
            <mxPoint x="1100" y="3700" as="sourcePoint" />
            <mxPoint x="1032" y="3699.71" as="targetPoint" />
            <Array as="points">
              <mxPoint x="1015" y="3700" />
            </Array>
          </mxGeometry>
        </mxCell>
        <mxCell id="Iom_2p9-gJP5RG_fc04b-130" value="{disjoint, complete}" style="text;html=1;align=center;verticalAlign=middle;resizable=1;points=[];autosize=1;strokeColor=none;fillColor=none;fontFamily=Cascadia Mono;fontSize=8;fontStyle=2;spacing=0;" parent="1" vertex="1">
          <mxGeometry x="890" y="3700" width="110" height="20" as="geometry" />
        </mxCell>
        <mxCell id="Iom_2p9-gJP5RG_fc04b-131" value="Item" style="swimlane;fontStyle=1;align=center;verticalAlign=middle;childLayout=stackLayout;horizontal=1;startSize=20;horizontalStack=0;resizeParent=1;resizeLast=0;collapsible=0;marginBottom=0;rounded=0;shadow=0;strokeWidth=1;fontFamily=Cascadia Mono;fontSize=10;swimlaneLine=1;fillColor=default;glass=0;html=1;noLabel=0;snapToPoint=0;fixDash=0;" parent="1" vertex="1">
          <mxGeometry x="990" y="3830" width="50" height="40" as="geometry">
            <mxRectangle x="220" y="130" width="160" height="26" as="alternateBounds" />
          </mxGeometry>
        </mxCell>
        <mxCell id="Iom_2p9-gJP5RG_fc04b-132" value="" style="endArrow=none;html=1;rounded=1;flowAnimation=0;shadow=0;anchorPointDirection=1;curved=0;entryX=0;entryY=0;entryDx=0;entryDy=0;entryPerimeter=0;" parent="1" edge="1">
          <mxGeometry width="50" height="50" relative="1" as="geometry">
            <mxPoint x="1014.79" y="3830" as="sourcePoint" />
            <mxPoint x="1014.79" y="3780" as="targetPoint" />
            <Array as="points" />
          </mxGeometry>
        </mxCell>
        <mxCell id="Iom_2p9-gJP5RG_fc04b-133" value="" style="endArrow=block;html=1;rounded=1;curved=0;endFill=0;fontFamily=Cascadia Mono;fontSize=10;startSize=6;endSize=10;entryX=0;entryY=0.5;entryDx=0;entryDy=0;exitX=1;exitY=0.5;exitDx=0;exitDy=0;" parent="1" edge="1">
          <mxGeometry width="50" height="50" relative="1" as="geometry">
            <mxPoint x="950" y="3850" as="sourcePoint" />
            <mxPoint x="992" y="3850" as="targetPoint" />
            <Array as="points" />
          </mxGeometry>
        </mxCell>
        <mxCell id="Iom_2p9-gJP5RG_fc04b-134" value="" style="endArrow=block;html=1;rounded=1;curved=0;endFill=0;fontFamily=Cascadia Mono;fontSize=10;startSize=6;endSize=10;entryX=1;entryY=0.5;entryDx=0;entryDy=0;exitX=0;exitY=0.5;exitDx=0;exitDy=0;" parent="1" source="Iom_2p9-gJP5RG_fc04b-115" target="Iom_2p9-gJP5RG_fc04b-131" edge="1">
          <mxGeometry width="50" height="50" relative="1" as="geometry">
            <mxPoint x="960" y="3860" as="sourcePoint" />
            <mxPoint x="1002" y="3860" as="targetPoint" />
            <Array as="points" />
          </mxGeometry>
        </mxCell>
        <mxCell id="Iom_2p9-gJP5RG_fc04b-135" value="constraint: from &amp;lt; to for enumeration" style="text;html=1;align=center;verticalAlign=middle;resizable=1;points=[];autosize=1;strokeColor=none;fillColor=none;fontFamily=Cascadia Mono;fontSize=10;fontStyle=0;labelBackgroundColor=default;spacing=0;" parent="1" vertex="1">
          <mxGeometry x="810" y="3630" width="240" height="20" as="geometry" />
        </mxCell>
        <mxCell id="Iom_2p9-gJP5RG_fc04b-136" value="" style="endArrow=none;html=1;rounded=1;flowAnimation=0;shadow=0;anchorPointDirection=1;curved=0;entryX=0.25;entryY=1;entryDx=0;entryDy=0;" parent="1" edge="1">
          <mxGeometry width="50" height="50" relative="1" as="geometry">
            <mxPoint x="1180" y="3800" as="sourcePoint" />
            <mxPoint x="1180" y="3720" as="targetPoint" />
            <Array as="points" />
          </mxGeometry>
        </mxCell>
        <mxCell id="Iom_2p9-gJP5RG_fc04b-137" value="step" style="text;html=1;align=center;verticalAlign=middle;resizable=1;points=[];autosize=1;strokeColor=none;fillColor=none;fontFamily=Cascadia Mono;fontSize=10;fontStyle=0;labelBackgroundColor=default;spacing=0;" parent="1" vertex="1">
          <mxGeometry x="1180" y="3750" width="40" height="20" as="geometry" />
        </mxCell>
        <mxCell id="Iom_2p9-gJP5RG_fc04b-138" value="0..1" style="text;html=1;align=center;verticalAlign=middle;resizable=1;points=[];autosize=1;strokeColor=none;fillColor=none;fontFamily=Cascadia Mono;fontSize=8;spacing=0;" parent="1" vertex="1">
          <mxGeometry x="1180" y="3780" width="40" height="20" as="geometry" />
        </mxCell>
        <mxCell id="Iom_2p9-gJP5RG_fc04b-139" value="constraint: step &amp;gt; 0" style="text;html=1;align=center;verticalAlign=middle;resizable=1;points=[];autosize=1;strokeColor=none;fillColor=none;fontFamily=Cascadia Mono;fontSize=10;fontStyle=0;labelBackgroundColor=default;spacing=0;" parent="1" vertex="1">
          <mxGeometry x="860" y="3650" width="140" height="20" as="geometry" />
        </mxCell>
        <mxCell id="Iom_2p9-gJP5RG_fc04b-141" value="List" style="swimlane;fontStyle=1;align=center;verticalAlign=middle;childLayout=stackLayout;horizontal=1;startSize=20;horizontalStack=0;resizeParent=1;resizeLast=0;collapsible=0;marginBottom=0;rounded=0;shadow=0;strokeWidth=1;fontFamily=Cascadia Mono;fontSize=10;swimlaneLine=1;fillColor=default;glass=0;html=1;noLabel=0;snapToPoint=0;fixDash=0;" parent="1" vertex="1">
          <mxGeometry x="1000" y="4040" width="60" height="40" as="geometry">
            <mxRectangle x="220" y="130" width="160" height="26" as="alternateBounds" />
          </mxGeometry>
        </mxCell>
        <mxCell id="Iom_2p9-gJP5RG_fc04b-142" value="Nil" style="swimlane;fontStyle=1;align=center;verticalAlign=middle;childLayout=stackLayout;horizontal=1;startSize=20;horizontalStack=0;resizeParent=1;resizeLast=0;collapsible=0;marginBottom=0;rounded=0;shadow=0;strokeWidth=1;fontFamily=Cascadia Mono;fontSize=10;swimlaneLine=1;fillColor=default;glass=0;html=1;noLabel=0;snapToPoint=0;fixDash=0;" parent="1" vertex="1">
          <mxGeometry x="1040" y="3970" width="50" height="40" as="geometry">
            <mxRectangle x="220" y="130" width="160" height="26" as="alternateBounds" />
          </mxGeometry>
        </mxCell>
        <mxCell id="Iom_2p9-gJP5RG_fc04b-143" value="Cons" style="swimlane;fontStyle=1;align=center;verticalAlign=middle;childLayout=stackLayout;horizontal=1;startSize=20;horizontalStack=0;resizeParent=1;resizeLast=0;collapsible=0;marginBottom=0;rounded=0;shadow=0;strokeWidth=1;fontFamily=Cascadia Mono;fontSize=10;swimlaneLine=1;fillColor=default;glass=0;html=1;noLabel=0;snapToPoint=0;fixDash=0;" parent="1" vertex="1">
          <mxGeometry x="970" y="3970" width="50" height="40" as="geometry">
            <mxRectangle x="220" y="130" width="160" height="26" as="alternateBounds" />
          </mxGeometry>
        </mxCell>
        <mxCell id="Iom_2p9-gJP5RG_fc04b-144" value="" style="endArrow=none;html=1;rounded=1;flowAnimation=0;shadow=0;anchorPointDirection=1;curved=0;" parent="1" edge="1">
          <mxGeometry width="50" height="50" relative="1" as="geometry">
            <mxPoint x="1000" y="3970" as="sourcePoint" />
            <mxPoint x="1010" y="3870" as="targetPoint" />
            <Array as="points" />
          </mxGeometry>
        </mxCell>
        <mxCell id="Iom_2p9-gJP5RG_fc04b-145" value="" style="endArrow=block;html=1;rounded=1;curved=0;endFill=0;fontFamily=Cascadia Mono;fontSize=10;startSize=6;endSize=10;exitX=0.917;exitY=1;exitDx=0;exitDy=0;exitPerimeter=0;" parent="1" edge="1">
          <mxGeometry width="50" height="50" relative="1" as="geometry">
            <mxPoint x="1010" y="4010" as="sourcePoint" />
            <mxPoint x="1030" y="4040" as="targetPoint" />
            <Array as="points">
              <mxPoint x="1010" y="4020" />
              <mxPoint x="1030" y="4020" />
            </Array>
          </mxGeometry>
        </mxCell>
        <mxCell id="Iom_2p9-gJP5RG_fc04b-146" value="" style="endArrow=block;html=1;rounded=1;curved=0;endFill=0;fontFamily=Cascadia Mono;fontSize=10;startSize=6;endSize=10;exitX=0.111;exitY=1;exitDx=0;exitDy=0;exitPerimeter=0;" parent="1" edge="1">
          <mxGeometry width="50" height="50" relative="1" as="geometry">
            <mxPoint x="1051" y="4010" as="sourcePoint" />
            <mxPoint x="1030" y="4040" as="targetPoint" />
            <Array as="points">
              <mxPoint x="1050" y="4020" />
              <mxPoint x="1030" y="4020" />
            </Array>
          </mxGeometry>
        </mxCell>
        <mxCell id="Iom_2p9-gJP5RG_fc04b-147" value="{disjoint, complete}" style="text;html=1;align=center;verticalAlign=middle;resizable=1;points=[];autosize=1;strokeColor=none;fillColor=none;fontFamily=Cascadia Mono;fontSize=8;fontStyle=2;spacing=0;" parent="1" vertex="1">
          <mxGeometry x="1030" y="4020" width="110" height="20" as="geometry" />
        </mxCell>
        <mxCell id="Iom_2p9-gJP5RG_fc04b-148" value="Tuple" style="swimlane;fontStyle=1;align=center;verticalAlign=middle;childLayout=stackLayout;horizontal=1;startSize=20;horizontalStack=0;resizeParent=1;resizeLast=0;collapsible=0;marginBottom=0;rounded=0;shadow=0;strokeWidth=1;fontFamily=Cascadia Mono;fontSize=10;swimlaneLine=1;fillColor=default;glass=0;html=1;noLabel=0;snapToPoint=0;fixDash=0;" parent="1" vertex="1">
          <mxGeometry x="1190" y="4080" width="60" height="40" as="geometry">
            <mxRectangle x="220" y="130" width="160" height="26" as="alternateBounds" />
          </mxGeometry>
        </mxCell>
        <mxCell id="Iom_2p9-gJP5RG_fc04b-149" value="Item" style="swimlane;fontStyle=1;align=center;verticalAlign=middle;childLayout=stackLayout;horizontal=1;startSize=20;horizontalStack=0;resizeParent=1;resizeLast=0;collapsible=0;marginBottom=0;rounded=0;shadow=0;strokeWidth=1;fontFamily=Cascadia Mono;fontSize=10;swimlaneLine=1;fillColor=default;glass=0;html=1;noLabel=0;snapToPoint=0;fixDash=0;" parent="1" vertex="1">
          <mxGeometry x="1190" y="3980" width="60" height="40" as="geometry">
            <mxRectangle x="220" y="130" width="160" height="26" as="alternateBounds" />
          </mxGeometry>
        </mxCell>
        <mxCell id="Iom_2p9-gJP5RG_fc04b-150" value="" style="endArrow=none;html=1;rounded=1;flowAnimation=0;shadow=0;anchorPointDirection=1;curved=0;exitX=0.5;exitY=0;exitDx=0;exitDy=0;" parent="1" source="Iom_2p9-gJP5RG_fc04b-148" edge="1">
          <mxGeometry width="50" height="50" relative="1" as="geometry">
            <mxPoint x="1220" y="4070" as="sourcePoint" />
            <mxPoint x="1220" y="4020" as="targetPoint" />
            <Array as="points" />
          </mxGeometry>
        </mxCell>
        <mxCell id="Iom_2p9-gJP5RG_fc04b-151" value="0..*" style="text;html=1;align=center;verticalAlign=middle;resizable=1;points=[];autosize=1;strokeColor=none;fillColor=none;fontFamily=Cascadia Mono;fontSize=8;spacing=0;" parent="1" vertex="1">
          <mxGeometry x="1220" y="4020" width="40" height="20" as="geometry" />
        </mxCell>
        <mxCell id="Iom_2p9-gJP5RG_fc04b-152" value="Function" style="swimlane;fontStyle=1;align=center;verticalAlign=middle;childLayout=stackLayout;horizontal=1;startSize=20;horizontalStack=0;resizeParent=1;resizeLast=0;collapsible=0;marginBottom=0;rounded=0;shadow=0;strokeWidth=1;fontFamily=Cascadia Mono;fontSize=10;swimlaneLine=1;fillColor=default;glass=0;html=1;noLabel=0;snapToPoint=0;fixDash=0;" parent="1" vertex="1">
          <mxGeometry x="910" y="4280" width="60" height="40" as="geometry">
            <mxRectangle x="220" y="130" width="160" height="26" as="alternateBounds" />
          </mxGeometry>
        </mxCell>
        <mxCell id="Iom_2p9-gJP5RG_fc04b-153" value="Variable" style="swimlane;fontStyle=1;align=center;verticalAlign=middle;childLayout=stackLayout;horizontal=1;startSize=20;horizontalStack=0;resizeParent=1;resizeLast=0;collapsible=0;marginBottom=0;rounded=0;shadow=0;strokeWidth=1;fontFamily=Cascadia Mono;fontSize=10;swimlaneLine=1;fillColor=default;glass=0;html=1;noLabel=0;snapToPoint=0;fixDash=0;" parent="1" vertex="1">
          <mxGeometry x="1060" y="4280" width="60" height="40" as="geometry">
            <mxRectangle x="220" y="130" width="160" height="26" as="alternateBounds" />
          </mxGeometry>
        </mxCell>
        <mxCell id="Iom_2p9-gJP5RG_fc04b-154" value="" style="endArrow=none;html=1;rounded=1;flowAnimation=0;shadow=0;anchorPointDirection=1;curved=0;entryX=0;entryY=0.5;entryDx=0;entryDy=0;exitX=1;exitY=0.5;exitDx=0;exitDy=0;" parent="1" source="Iom_2p9-gJP5RG_fc04b-152" target="Iom_2p9-gJP5RG_fc04b-159" edge="1">
          <mxGeometry width="50" height="50" relative="1" as="geometry">
            <mxPoint x="990" y="4300" as="sourcePoint" />
            <mxPoint x="1000" y="4200" as="targetPoint" />
            <Array as="points" />
          </mxGeometry>
        </mxCell>
        <mxCell id="Iom_2p9-gJP5RG_fc04b-155" value="0..1" style="text;html=1;align=center;verticalAlign=middle;resizable=1;points=[];autosize=1;strokeColor=none;fillColor=none;fontFamily=Cascadia Mono;fontSize=8;spacing=0;" parent="1" vertex="1">
          <mxGeometry x="1220" y="4060" width="40" height="20" as="geometry" />
        </mxCell>
        <mxCell id="Iom_2p9-gJP5RG_fc04b-156" value="0..*" style="text;html=1;align=center;verticalAlign=middle;resizable=1;points=[];autosize=1;strokeColor=none;fillColor=none;fontFamily=Cascadia Mono;fontSize=8;spacing=0;" parent="1" vertex="1">
          <mxGeometry x="1020" y="4190" width="40" height="20" as="geometry" />
        </mxCell>
        <mxCell id="Iom_2p9-gJP5RG_fc04b-158" value="0..1" style="text;html=1;align=center;verticalAlign=middle;resizable=1;points=[];autosize=1;strokeColor=none;fillColor=none;fontFamily=Cascadia Mono;fontSize=8;spacing=0;" parent="1" vertex="1">
          <mxGeometry x="975" y="4290" width="40" height="20" as="geometry" />
        </mxCell>
        <mxCell id="Iom_2p9-gJP5RG_fc04b-159" value="Argument" style="swimlane;fontStyle=1;align=center;verticalAlign=middle;childLayout=stackLayout;horizontal=1;startSize=20;horizontalStack=0;resizeParent=1;resizeLast=0;collapsible=0;marginBottom=0;rounded=0;shadow=0;strokeWidth=1;fontFamily=Cascadia Mono;fontSize=10;swimlaneLine=1;fillColor=default;glass=0;html=1;noLabel=0;snapToPoint=0;fixDash=0;" parent="1" vertex="1">
          <mxGeometry x="1060" y="4190" width="60" height="40" as="geometry">
            <mxRectangle x="220" y="130" width="160" height="26" as="alternateBounds" />
          </mxGeometry>
        </mxCell>
        <mxCell id="Iom_2p9-gJP5RG_fc04b-160" value="" style="endArrow=block;html=1;rounded=1;curved=0;endFill=0;fontFamily=Cascadia Mono;fontSize=10;startSize=6;endSize=10;entryX=1;entryY=0.5;entryDx=0;entryDy=0;exitX=0.5;exitY=1;exitDx=0;exitDy=0;" parent="1" source="Iom_2p9-gJP5RG_fc04b-159" edge="1">
          <mxGeometry width="50" height="50" relative="1" as="geometry">
            <mxPoint x="1170" y="4250" as="sourcePoint" />
            <mxPoint x="1090" y="4280" as="targetPoint" />
            <Array as="points" />
          </mxGeometry>
        </mxCell>
        <mxCell id="Iom_2p9-gJP5RG_fc04b-161" value="Body" style="swimlane;fontStyle=1;align=center;verticalAlign=middle;childLayout=stackLayout;horizontal=1;startSize=20;horizontalStack=0;resizeParent=1;resizeLast=0;collapsible=0;marginBottom=0;rounded=0;shadow=0;strokeWidth=1;fontFamily=Cascadia Mono;fontSize=10;swimlaneLine=1;fillColor=default;glass=0;html=1;noLabel=0;snapToPoint=0;fixDash=0;" parent="1" vertex="1">
          <mxGeometry x="910" y="4410" width="60" height="40" as="geometry">
            <mxRectangle x="220" y="130" width="160" height="26" as="alternateBounds" />
          </mxGeometry>
        </mxCell>
        <mxCell id="Iom_2p9-gJP5RG_fc04b-162" value="Operation" style="swimlane;fontStyle=1;align=center;verticalAlign=middle;childLayout=stackLayout;horizontal=1;startSize=20;horizontalStack=0;resizeParent=1;resizeLast=0;collapsible=0;marginBottom=0;rounded=0;shadow=0;strokeWidth=1;fontFamily=Cascadia Mono;fontSize=10;swimlaneLine=1;fillColor=default;glass=0;html=1;noLabel=0;snapToPoint=0;fixDash=0;" parent="1" vertex="1">
          <mxGeometry x="1190" y="4210" width="80" height="40" as="geometry">
            <mxRectangle x="220" y="130" width="160" height="26" as="alternateBounds" />
          </mxGeometry>
        </mxCell>
        <mxCell id="Iom_2p9-gJP5RG_fc04b-163" value="Let" style="swimlane;fontStyle=1;align=center;verticalAlign=middle;childLayout=stackLayout;horizontal=1;startSize=20;horizontalStack=0;resizeParent=1;resizeLast=0;collapsible=0;marginBottom=0;rounded=0;shadow=0;strokeWidth=1;fontFamily=Cascadia Mono;fontSize=10;swimlaneLine=1;fillColor=default;glass=0;html=1;noLabel=0;snapToPoint=0;fixDash=0;" parent="1" vertex="1">
          <mxGeometry x="1220" y="4380" width="60" height="40" as="geometry">
            <mxRectangle x="220" y="130" width="160" height="26" as="alternateBounds" />
          </mxGeometry>
        </mxCell>
        <mxCell id="Iom_2p9-gJP5RG_fc04b-164" value="" style="endArrow=none;html=1;rounded=1;flowAnimation=0;shadow=0;anchorPointDirection=1;curved=0;entryX=0.5;entryY=0;entryDx=0;entryDy=0;exitX=0.5;exitY=1;exitDx=0;exitDy=0;" parent="1" source="Iom_2p9-gJP5RG_fc04b-152" target="Iom_2p9-gJP5RG_fc04b-161" edge="1">
          <mxGeometry width="50" height="50" relative="1" as="geometry">
            <mxPoint x="980" y="4310" as="sourcePoint" />
            <mxPoint x="1070" y="4220" as="targetPoint" />
            <Array as="points" />
          </mxGeometry>
        </mxCell>
        <mxCell id="Iom_2p9-gJP5RG_fc04b-165" value="" style="endArrow=none;html=1;rounded=1;flowAnimation=0;shadow=0;anchorPointDirection=1;curved=0;entryX=1;entryY=0.25;entryDx=0;entryDy=0;exitX=0;exitY=0.25;exitDx=0;exitDy=0;" parent="1" source="Iom_2p9-gJP5RG_fc04b-163" target="Iom_2p9-gJP5RG_fc04b-161" edge="1">
          <mxGeometry width="50" height="50" relative="1" as="geometry">
            <mxPoint x="950" y="4330" as="sourcePoint" />
            <mxPoint x="950" y="4420" as="targetPoint" />
            <Array as="points" />
          </mxGeometry>
        </mxCell>
        <mxCell id="Iom_2p9-gJP5RG_fc04b-166" value="" style="endArrow=none;html=1;rounded=1;flowAnimation=0;shadow=0;anchorPointDirection=1;curved=0;entryX=1;entryY=0.75;entryDx=0;entryDy=0;" parent="1" target="Iom_2p9-gJP5RG_fc04b-161" edge="1">
          <mxGeometry width="50" height="50" relative="1" as="geometry">
            <mxPoint x="1220" y="4410" as="sourcePoint" />
            <mxPoint x="980" y="4440" as="targetPoint" />
            <Array as="points" />
          </mxGeometry>
        </mxCell>
        <mxCell id="Iom_2p9-gJP5RG_fc04b-167" value="" style="endArrow=none;html=1;rounded=1;flowAnimation=0;shadow=0;anchorPointDirection=1;curved=0;entryX=0.5;entryY=1;entryDx=0;entryDy=0;exitX=0.25;exitY=0;exitDx=0;exitDy=0;" parent="1" source="Iom_2p9-gJP5RG_fc04b-163" target="Iom_2p9-gJP5RG_fc04b-153" edge="1">
          <mxGeometry width="50" height="50" relative="1" as="geometry">
            <mxPoint x="1230" y="4400" as="sourcePoint" />
            <mxPoint x="980" y="4430" as="targetPoint" />
            <Array as="points" />
          </mxGeometry>
        </mxCell>
        <mxCell id="Iom_2p9-gJP5RG_fc04b-168" value="Expression" style="swimlane;fontStyle=1;align=center;verticalAlign=middle;childLayout=stackLayout;horizontal=1;startSize=20;horizontalStack=0;resizeParent=1;resizeLast=0;collapsible=0;marginBottom=0;rounded=0;shadow=0;strokeWidth=1;fontFamily=Cascadia Mono;fontSize=10;swimlaneLine=1;fillColor=default;glass=0;html=1;noLabel=0;snapToPoint=0;fixDash=0;" parent="1" vertex="1">
          <mxGeometry x="1330" y="4260" width="80" height="40" as="geometry">
            <mxRectangle x="220" y="130" width="160" height="26" as="alternateBounds" />
          </mxGeometry>
        </mxCell>
        <mxCell id="Iom_2p9-gJP5RG_fc04b-169" value="" style="endArrow=block;html=1;rounded=1;curved=0;endFill=0;fontFamily=Cascadia Mono;fontSize=10;startSize=6;endSize=10;entryX=0.5;entryY=0;entryDx=0;entryDy=0;exitX=1;exitY=0.5;exitDx=0;exitDy=0;" parent="1" source="Iom_2p9-gJP5RG_fc04b-148" target="Iom_2p9-gJP5RG_fc04b-168" edge="1">
          <mxGeometry width="50" height="50" relative="1" as="geometry">
            <mxPoint x="960" y="3860" as="sourcePoint" />
            <mxPoint x="1002" y="3860" as="targetPoint" />
            <Array as="points" />
          </mxGeometry>
        </mxCell>
        <mxCell id="Iom_2p9-gJP5RG_fc04b-170" value="Case" style="swimlane;fontStyle=1;align=center;verticalAlign=middle;childLayout=stackLayout;horizontal=1;startSize=20;horizontalStack=0;resizeParent=1;resizeLast=0;collapsible=0;marginBottom=0;rounded=0;shadow=0;strokeWidth=1;fontFamily=Cascadia Mono;fontSize=10;swimlaneLine=1;fillColor=default;glass=0;html=1;noLabel=0;snapToPoint=0;fixDash=0;" parent="1" vertex="1">
          <mxGeometry x="1380" y="4430" width="60" height="40" as="geometry">
            <mxRectangle x="220" y="130" width="160" height="26" as="alternateBounds" />
          </mxGeometry>
        </mxCell>
        <mxCell id="Iom_2p9-gJP5RG_fc04b-171" value="Choice" style="swimlane;fontStyle=1;align=center;verticalAlign=middle;childLayout=stackLayout;horizontal=1;startSize=20;horizontalStack=0;resizeParent=1;resizeLast=0;collapsible=0;marginBottom=0;rounded=0;shadow=0;strokeWidth=1;fontFamily=Cascadia Mono;fontSize=10;swimlaneLine=1;fillColor=default;glass=0;html=1;noLabel=0;snapToPoint=0;fixDash=0;" parent="1" vertex="1">
          <mxGeometry x="1380" y="4370" width="60" height="40" as="geometry">
            <mxRectangle x="220" y="130" width="160" height="26" as="alternateBounds" />
          </mxGeometry>
        </mxCell>
        <mxCell id="ScMDXYOSDisP1B6nsyqL-1" value="Class" style="swimlane;fontStyle=1;align=center;verticalAlign=middle;childLayout=stackLayout;horizontal=1;startSize=20;horizontalStack=0;resizeParent=1;resizeLast=0;collapsible=0;marginBottom=0;rounded=0;shadow=0;strokeWidth=1;fontFamily=Cascadia Mono;fontSize=10;swimlaneLine=1;fillColor=default;glass=0;html=1;noLabel=0;snapToPoint=0;fixDash=0;" parent="1" vertex="1">
          <mxGeometry x="1110" y="4470" width="80" height="40" as="geometry">
            <mxRectangle x="220" y="130" width="160" height="26" as="alternateBounds" />
          </mxGeometry>
        </mxCell>
        <mxCell id="ScMDXYOSDisP1B6nsyqL-2" value="Type" style="swimlane;fontStyle=1;align=center;verticalAlign=middle;childLayout=stackLayout;horizontal=1;startSize=20;horizontalStack=0;resizeParent=1;resizeLast=0;collapsible=0;marginBottom=0;rounded=0;shadow=0;strokeWidth=1;fontFamily=Cascadia Mono;fontSize=10;swimlaneLine=1;fillColor=default;glass=0;html=1;noLabel=0;snapToPoint=0;fixDash=0;" parent="1" vertex="1">
          <mxGeometry x="1110" y="4570" width="80" height="40" as="geometry">
            <mxRectangle x="220" y="130" width="160" height="26" as="alternateBounds" />
          </mxGeometry>
        </mxCell>
        <mxCell id="ScMDXYOSDisP1B6nsyqL-3" value="" style="endArrow=none;html=1;rounded=1;flowAnimation=0;shadow=0;anchorPointDirection=1;curved=0;entryX=0.5;entryY=1;entryDx=0;entryDy=0;exitX=0.5;exitY=0;exitDx=0;exitDy=0;" parent="1" source="ScMDXYOSDisP1B6nsyqL-2" target="ScMDXYOSDisP1B6nsyqL-1" edge="1">
          <mxGeometry width="50" height="50" relative="1" as="geometry">
            <mxPoint x="1245" y="4390" as="sourcePoint" />
            <mxPoint x="1100" y="4330" as="targetPoint" />
            <Array as="points" />
          </mxGeometry>
        </mxCell>
        <mxCell id="ScMDXYOSDisP1B6nsyqL-4" value="1..*" style="text;html=1;align=center;verticalAlign=middle;resizable=1;points=[];autosize=1;strokeColor=none;fillColor=none;fontFamily=Cascadia Mono;fontSize=8;spacing=0;" parent="1" vertex="1">
          <mxGeometry x="1150" y="4550" width="40" height="20" as="geometry" />
        </mxCell>
        <mxCell id="ScMDXYOSDisP1B6nsyqL-5" value="" style="endArrow=none;html=1;rounded=1;flowAnimation=0;shadow=0;anchorPointDirection=1;curved=0;exitX=0;exitY=0.5;exitDx=0;exitDy=0;entryX=0;entryY=0.5;entryDx=0;entryDy=0;" parent="1" source="ScMDXYOSDisP1B6nsyqL-1" target="Iom_2p9-gJP5RG_fc04b-152" edge="1">
          <mxGeometry width="50" height="50" relative="1" as="geometry">
            <mxPoint x="1230" y="4400" as="sourcePoint" />
            <mxPoint x="880" y="4500" as="targetPoint" />
            <Array as="points">
              <mxPoint x="860" y="4490" />
              <mxPoint x="850" y="4300" />
            </Array>
          </mxGeometry>
        </mxCell>
        <mxCell id="ScMDXYOSDisP1B6nsyqL-6" value="0..*" style="text;html=1;align=center;verticalAlign=middle;resizable=1;points=[];autosize=1;strokeColor=none;fillColor=none;fontFamily=Cascadia Mono;fontSize=8;spacing=0;" parent="1" vertex="1">
          <mxGeometry x="870" y="4300" width="40" height="20" as="geometry" />
        </mxCell>
        <mxCell id="ScMDXYOSDisP1B6nsyqL-10" value="must have a return type somehow?" style="text;html=1;align=center;verticalAlign=middle;resizable=1;points=[];autosize=1;strokeColor=none;fillColor=none;fontFamily=Cascadia Mono;fontSize=10;fontStyle=0;labelBackgroundColor=default;spacing=0;" parent="1" vertex="1">
          <mxGeometry x="830" y="4500" width="210" height="20" as="geometry" />
        </mxCell>
        <mxCell id="ScMDXYOSDisP1B6nsyqL-11" value="might have a &quot;default&quot; implementation" style="text;html=1;align=center;verticalAlign=middle;resizable=1;points=[];autosize=1;strokeColor=none;fillColor=none;fontFamily=Cascadia Mono;fontSize=10;fontStyle=0;labelBackgroundColor=default;spacing=0;" parent="1" vertex="1">
          <mxGeometry x="820" y="4520" width="240" height="20" as="geometry" />
        </mxCell>
        <mxCell id="ScMDXYOSDisP1B6nsyqL-12" value="Class is basically&lt;br&gt;an interface" style="text;html=1;align=center;verticalAlign=middle;resizable=1;points=[];autosize=1;strokeColor=none;fillColor=none;fontFamily=Cascadia Mono;fontSize=10;fontStyle=0;labelBackgroundColor=default;spacing=0;" parent="1" vertex="1">
          <mxGeometry x="1195" y="4475" width="130" height="30" as="geometry" />
        </mxCell>
        <mxCell id="ScMDXYOSDisP1B6nsyqL-21" value="Type" style="swimlane;fontStyle=1;align=center;verticalAlign=middle;childLayout=stackLayout;horizontal=1;startSize=20;horizontalStack=0;resizeParent=1;resizeLast=0;collapsible=0;marginBottom=0;rounded=0;shadow=0;strokeWidth=1;fontFamily=Cascadia Mono;fontSize=10;swimlaneLine=1;fillColor=default;glass=0;html=1;noLabel=0;snapToPoint=0;fixDash=0;" parent="1" vertex="1">
          <mxGeometry x="1370" y="3980" width="60" height="40" as="geometry">
            <mxRectangle x="220" y="130" width="160" height="26" as="alternateBounds" />
          </mxGeometry>
        </mxCell>
        <mxCell id="ScMDXYOSDisP1B6nsyqL-22" value="Constructor" style="swimlane;fontStyle=1;align=center;verticalAlign=middle;childLayout=stackLayout;horizontal=1;startSize=20;horizontalStack=0;resizeParent=1;resizeLast=0;collapsible=0;marginBottom=0;rounded=0;shadow=0;strokeWidth=1;fontFamily=Cascadia Mono;fontSize=10;swimlaneLine=1;fillColor=default;glass=0;html=1;noLabel=0;snapToPoint=0;fixDash=0;" parent="1" vertex="1">
          <mxGeometry x="1355" y="4080" width="90" height="40" as="geometry">
            <mxRectangle x="220" y="130" width="160" height="26" as="alternateBounds" />
          </mxGeometry>
        </mxCell>
        <mxCell id="ScMDXYOSDisP1B6nsyqL-23" value="&lt;div&gt;type might have 0 or&amp;nbsp;&lt;/div&gt;&lt;div&gt;more constructors&lt;/div&gt;" style="text;html=1;align=center;verticalAlign=middle;resizable=1;points=[];autosize=1;strokeColor=none;fillColor=none;fontFamily=Cascadia Mono;fontSize=10;fontStyle=0;labelBackgroundColor=default;spacing=0;" parent="1" vertex="1">
          <mxGeometry x="1320" y="3930" width="140" height="30" as="geometry" />
        </mxCell>
        <mxCell id="ScMDXYOSDisP1B6nsyqL-24" value="" style="endArrow=none;html=1;rounded=1;flowAnimation=0;shadow=0;anchorPointDirection=1;curved=0;exitX=0.5;exitY=0;exitDx=0;exitDy=0;" parent="1" edge="1">
          <mxGeometry width="50" height="50" relative="1" as="geometry">
            <mxPoint x="1399.6" y="4080" as="sourcePoint" />
            <mxPoint x="1399.6" y="4020" as="targetPoint" />
            <Array as="points" />
          </mxGeometry>
        </mxCell>
        <mxCell id="ScMDXYOSDisP1B6nsyqL-26" value="AssociatedTypes" style="swimlane;fontStyle=1;align=center;verticalAlign=middle;childLayout=stackLayout;horizontal=1;startSize=20;horizontalStack=0;resizeParent=1;resizeLast=0;collapsible=0;marginBottom=0;rounded=0;shadow=0;strokeWidth=1;fontFamily=Cascadia Mono;fontSize=10;swimlaneLine=1;fillColor=default;glass=0;html=1;noLabel=0;snapToPoint=0;fixDash=0;" parent="1" vertex="1">
          <mxGeometry x="1420" y="4160" width="100" height="40" as="geometry">
            <mxRectangle x="220" y="130" width="160" height="26" as="alternateBounds" />
          </mxGeometry>
        </mxCell>
        <mxCell id="ScMDXYOSDisP1B6nsyqL-27" value="" style="endArrow=none;html=1;rounded=1;flowAnimation=0;shadow=0;anchorPointDirection=1;curved=0;exitX=0.5;exitY=0;exitDx=0;exitDy=0;entryX=1;entryY=0.5;entryDx=0;entryDy=0;" parent="1" source="ScMDXYOSDisP1B6nsyqL-26" target="ScMDXYOSDisP1B6nsyqL-22" edge="1">
          <mxGeometry width="50" height="50" relative="1" as="geometry">
            <mxPoint x="1409.6" y="4090" as="sourcePoint" />
            <mxPoint x="1409.6" y="4030" as="targetPoint" />
            <Array as="points" />
          </mxGeometry>
        </mxCell>
        <mxCell id="ScMDXYOSDisP1B6nsyqL-28" value="TypeVariables" style="swimlane;fontStyle=1;align=center;verticalAlign=middle;childLayout=stackLayout;horizontal=1;startSize=20;horizontalStack=0;resizeParent=1;resizeLast=0;collapsible=0;marginBottom=0;rounded=0;shadow=0;strokeWidth=1;fontFamily=Cascadia Mono;fontSize=10;swimlaneLine=1;fillColor=default;glass=0;html=1;noLabel=0;snapToPoint=0;fixDash=0;" parent="1" vertex="1">
          <mxGeometry x="1480" y="4050" width="90" height="40" as="geometry">
            <mxRectangle x="220" y="130" width="160" height="26" as="alternateBounds" />
          </mxGeometry>
        </mxCell>
        <mxCell id="ScMDXYOSDisP1B6nsyqL-29" value="&lt;div&gt;type variables are&amp;nbsp;&lt;/div&gt;&lt;div&gt;basically &quot;generics&quot;&lt;br&gt;&lt;/div&gt;" style="text;html=1;align=center;verticalAlign=middle;resizable=1;points=[];autosize=1;strokeColor=none;fillColor=none;fontFamily=Cascadia Mono;fontSize=10;fontStyle=0;labelBackgroundColor=default;spacing=0;" parent="1" vertex="1">
          <mxGeometry x="1445" y="3985" width="140" height="30" as="geometry" />
        </mxCell>
        <mxCell id="ScMDXYOSDisP1B6nsyqL-30" value="&lt;div&gt;a constructor&lt;/div&gt;&lt;div&gt;can have names&lt;/div&gt;&lt;div&gt;for the associated&lt;/div&gt;&lt;div&gt;types&lt;br&gt;&lt;/div&gt;" style="text;html=1;align=center;verticalAlign=middle;resizable=1;points=[];autosize=1;strokeColor=none;fillColor=none;fontFamily=Cascadia Mono;fontSize=10;fontStyle=0;labelBackgroundColor=default;spacing=0;" parent="1" vertex="1">
          <mxGeometry x="1530" y="4120" width="130" height="60" as="geometry" />
        </mxCell>
        <mxCell id="ScMDXYOSDisP1B6nsyqL-31" value="&lt;div&gt;a.k.a. &lt;br&gt;&lt;/div&gt;&lt;div&gt;selector or &lt;br&gt;&lt;/div&gt;&lt;div&gt;accessor functions&lt;br&gt;&lt;/div&gt;" style="text;html=1;align=center;verticalAlign=middle;resizable=1;points=[];autosize=1;strokeColor=none;fillColor=none;fontFamily=Cascadia Mono;fontSize=10;fontStyle=0;labelBackgroundColor=default;spacing=0;" parent="1" vertex="1">
          <mxGeometry x="1530" y="4170" width="130" height="50" as="geometry" />
        </mxCell>
        <mxCell id="ScMDXYOSDisP1B6nsyqL-32" value="&lt;div&gt;wtf are class &lt;br&gt;&lt;/div&gt;&lt;div&gt;constraints?&lt;br&gt;&lt;/div&gt;" style="text;html=1;align=center;verticalAlign=middle;resizable=1;points=[];autosize=1;strokeColor=none;fillColor=none;fontFamily=Cascadia Mono;fontSize=10;fontStyle=0;labelBackgroundColor=default;spacing=0;" parent="1" vertex="1">
          <mxGeometry x="1600" y="4045" width="100" height="30" as="geometry" />
        </mxCell>
        <mxCell id="ScMDXYOSDisP1B6nsyqL-35" value="&lt;div&gt;Same as Rust #[derive]&lt;br&gt;&lt;/div&gt;&lt;div&gt;&lt;br&gt;&lt;/div&gt;&lt;div&gt;Eq, Read, Show,&amp;nbsp;&lt;/div&gt;&lt;div&gt;Ord, Enum, Ix, and&lt;/div&gt;Bounded" style="text;html=1;align=center;verticalAlign=middle;resizable=1;points=[];autosize=1;strokeColor=none;fillColor=none;fontFamily=Cascadia Mono;fontSize=10;fontStyle=0;labelBackgroundColor=default;spacing=0;" parent="1" vertex="1">
          <mxGeometry x="1585" y="3975" width="150" height="70" as="geometry" />
        </mxCell>
        <mxCell id="ScMDXYOSDisP1B6nsyqL-36" value="IfThenElse" style="swimlane;fontStyle=1;align=center;verticalAlign=middle;childLayout=stackLayout;horizontal=1;startSize=20;horizontalStack=0;resizeParent=1;resizeLast=0;collapsible=0;marginBottom=0;rounded=0;shadow=0;strokeWidth=1;fontFamily=Cascadia Mono;fontSize=10;swimlaneLine=1;fillColor=default;glass=0;html=1;noLabel=0;snapToPoint=0;fixDash=0;" parent="1" vertex="1">
          <mxGeometry x="1475" y="4255" width="80" height="40" as="geometry">
            <mxRectangle x="220" y="130" width="160" height="26" as="alternateBounds" />
          </mxGeometry>
        </mxCell>
        <mxCell id="ScMDXYOSDisP1B6nsyqL-37" value="" style="endArrow=block;html=1;rounded=1;curved=0;endFill=0;fontFamily=Cascadia Mono;fontSize=10;startSize=6;endSize=10;entryX=1;entryY=0.5;entryDx=0;entryDy=0;exitX=0;exitY=0.5;exitDx=0;exitDy=0;" parent="1" source="ScMDXYOSDisP1B6nsyqL-36" target="Iom_2p9-gJP5RG_fc04b-168" edge="1">
          <mxGeometry width="50" height="50" relative="1" as="geometry">
            <mxPoint x="1260" y="4110" as="sourcePoint" />
            <mxPoint x="1380" y="4270" as="targetPoint" />
            <Array as="points" />
          </mxGeometry>
        </mxCell>
        <mxCell id="ScMDXYOSDisP1B6nsyqL-38" value="Newtype" style="swimlane;fontStyle=1;align=center;verticalAlign=middle;childLayout=stackLayout;horizontal=1;startSize=20;horizontalStack=0;resizeParent=1;resizeLast=0;collapsible=0;marginBottom=0;rounded=0;shadow=0;strokeWidth=1;fontFamily=Cascadia Mono;fontSize=10;swimlaneLine=1;fillColor=default;glass=0;html=1;noLabel=0;snapToPoint=0;fixDash=0;" parent="1" vertex="1">
          <mxGeometry x="1390" y="4620" width="80" height="40" as="geometry">
            <mxRectangle x="220" y="130" width="160" height="26" as="alternateBounds" />
          </mxGeometry>
        </mxCell>
        <mxCell id="ScMDXYOSDisP1B6nsyqL-39" value="Type(Alias)" style="swimlane;fontStyle=1;align=center;verticalAlign=middle;childLayout=stackLayout;horizontal=1;startSize=20;horizontalStack=0;resizeParent=1;resizeLast=0;collapsible=0;marginBottom=0;rounded=0;shadow=0;strokeWidth=1;fontFamily=Cascadia Mono;fontSize=10;swimlaneLine=1;fillColor=default;glass=0;html=1;noLabel=0;snapToPoint=0;fixDash=0;" parent="1" vertex="1">
          <mxGeometry x="1280" y="4620" width="80" height="40" as="geometry">
            <mxRectangle x="220" y="130" width="160" height="26" as="alternateBounds" />
          </mxGeometry>
        </mxCell>
        <mxCell id="ScMDXYOSDisP1B6nsyqL-40" value="Data" style="swimlane;fontStyle=1;align=center;verticalAlign=middle;childLayout=stackLayout;horizontal=1;startSize=20;horizontalStack=0;resizeParent=1;resizeLast=0;collapsible=0;marginBottom=0;rounded=0;shadow=0;strokeWidth=1;fontFamily=Cascadia Mono;fontSize=10;swimlaneLine=1;fillColor=default;glass=0;html=1;noLabel=0;snapToPoint=0;fixDash=0;" parent="1" vertex="1">
          <mxGeometry x="1490" y="4620" width="80" height="40" as="geometry">
            <mxRectangle x="220" y="130" width="160" height="26" as="alternateBounds" />
          </mxGeometry>
        </mxCell>
        <mxCell id="ScMDXYOSDisP1B6nsyqL-41" value="Identifier" style="swimlane;fontStyle=1;align=center;verticalAlign=middle;childLayout=stackLayout;horizontal=1;startSize=20;horizontalStack=0;resizeParent=1;resizeLast=0;collapsible=0;marginBottom=0;rounded=0;shadow=0;strokeWidth=1;fontFamily=Cascadia Mono;fontSize=10;swimlaneLine=1;fillColor=default;glass=0;html=1;noLabel=0;snapToPoint=0;fixDash=0;" parent="1" vertex="1">
          <mxGeometry x="905" y="4120" width="185" height="40" as="geometry">
            <mxRectangle x="220" y="130" width="160" height="26" as="alternateBounds" />
          </mxGeometry>
        </mxCell>
        <mxCell id="ScMDXYOSDisP1B6nsyqL-42" value="identifier: &lt;b&gt;Identifier&lt;/b&gt; {id??}&lt;b&gt;&lt;br&gt;&lt;/b&gt;" style="text;align=left;verticalAlign=middle;spacingLeft=4;spacingRight=4;overflow=hidden;rotatable=0;points=[[0,0.5],[1,0.5]];portConstraint=eastwest;fontFamily=Cascadia Mono;fontStyle=0;fontSize=10;html=1;" parent="ScMDXYOSDisP1B6nsyqL-41" vertex="1">
          <mxGeometry y="20" width="185" height="20" as="geometry" />
        </mxCell>
        <mxCell id="ScMDXYOSDisP1B6nsyqL-44" value="&lt;div&gt;basically a function&lt;/div&gt;&lt;div&gt;with 2 arguments,&lt;/div&gt;&lt;div&gt;in parenthesees&lt;br&gt;&lt;/div&gt;" style="text;html=1;align=center;verticalAlign=middle;resizable=1;points=[];autosize=1;strokeColor=none;fillColor=none;fontFamily=Cascadia Mono;fontSize=10;fontStyle=0;labelBackgroundColor=default;spacing=0;" parent="1" vertex="1">
          <mxGeometry x="1150" y="4245" width="140" height="50" as="geometry" />
        </mxCell>
        <mxCell id="ScMDXYOSDisP1B6nsyqL-45" value="AnonymousFunction" style="swimlane;fontStyle=1;align=center;verticalAlign=middle;childLayout=stackLayout;horizontal=1;startSize=20;horizontalStack=0;resizeParent=1;resizeLast=0;collapsible=0;marginBottom=0;rounded=0;shadow=0;strokeWidth=1;fontFamily=Cascadia Mono;fontSize=10;swimlaneLine=1;fillColor=default;glass=0;html=1;noLabel=0;snapToPoint=0;fixDash=0;" parent="1" vertex="1">
          <mxGeometry x="840" y="4205" width="120" height="40" as="geometry">
            <mxRectangle x="220" y="130" width="160" height="26" as="alternateBounds" />
          </mxGeometry>
        </mxCell>
        <mxCell id="ScMDXYOSDisP1B6nsyqL-46" value="" style="endArrow=block;html=1;rounded=1;curved=0;endFill=0;fontFamily=Cascadia Mono;fontSize=10;startSize=6;endSize=10;entryX=0.5;entryY=0;entryDx=0;entryDy=0;exitX=0.5;exitY=1;exitDx=0;exitDy=0;" parent="1" source="ScMDXYOSDisP1B6nsyqL-45" target="Iom_2p9-gJP5RG_fc04b-152" edge="1">
          <mxGeometry width="50" height="50" relative="1" as="geometry">
            <mxPoint x="1100" y="4240" as="sourcePoint" />
            <mxPoint x="1100" y="4290" as="targetPoint" />
            <Array as="points" />
          </mxGeometry>
        </mxCell>
        <mxCell id="ScMDXYOSDisP1B6nsyqL-47" value="&lt;div&gt;Una function&lt;/div&gt;&lt;div&gt;ma senza nome&lt;br&gt;&lt;/div&gt;" style="text;html=1;align=center;verticalAlign=middle;resizable=1;points=[];autosize=1;strokeColor=none;fillColor=none;fontFamily=Cascadia Mono;fontSize=10;fontStyle=0;labelBackgroundColor=default;spacing=0;" parent="1" vertex="1">
          <mxGeometry x="847.5" y="4170" width="100" height="30" as="geometry" />
        </mxCell>
        <mxCell id="5zgf7GItrFRaiiQOh5Oo-1" value="List" style="swimlane;fontStyle=1;align=center;verticalAlign=middle;childLayout=stackLayout;horizontal=1;startSize=20;horizontalStack=0;resizeParent=1;resizeLast=0;collapsible=0;marginBottom=0;rounded=0;shadow=0;strokeWidth=1;fontFamily=Cascadia Mono;fontSize=10;swimlaneLine=1;fillColor=default;glass=0;html=1;noLabel=0;snapToPoint=0;fixDash=0;" vertex="1" parent="1">
          <mxGeometry x="1850" y="3210" width="40" height="20" as="geometry">
            <mxRectangle x="220" y="130" width="160" height="26" as="alternateBounds" />
          </mxGeometry>
        </mxCell>
        <mxCell id="5zgf7GItrFRaiiQOh5Oo-2" value="Nil" style="swimlane;fontStyle=1;align=center;verticalAlign=middle;childLayout=stackLayout;horizontal=1;startSize=20;horizontalStack=0;resizeParent=1;resizeLast=0;collapsible=0;marginBottom=0;rounded=0;shadow=0;strokeWidth=1;fontFamily=Cascadia Mono;fontSize=10;swimlaneLine=1;fillColor=default;glass=0;html=1;noLabel=0;snapToPoint=0;fixDash=0;" vertex="1" parent="1">
          <mxGeometry x="1880" y="3160" width="40" height="20" as="geometry">
            <mxRectangle x="220" y="130" width="160" height="26" as="alternateBounds" />
          </mxGeometry>
        </mxCell>
        <mxCell id="5zgf7GItrFRaiiQOh5Oo-3" value="Cons" style="swimlane;fontStyle=1;align=center;verticalAlign=middle;childLayout=stackLayout;horizontal=1;startSize=20;horizontalStack=0;resizeParent=1;resizeLast=0;collapsible=0;marginBottom=0;rounded=0;shadow=0;strokeWidth=1;fontFamily=Cascadia Mono;fontSize=10;swimlaneLine=1;fillColor=default;glass=0;html=1;noLabel=0;snapToPoint=0;fixDash=0;" vertex="1" parent="1">
          <mxGeometry x="1820" y="3160" width="40" height="20" as="geometry">
            <mxRectangle x="220" y="130" width="160" height="26" as="alternateBounds" />
          </mxGeometry>
        </mxCell>
        <mxCell id="5zgf7GItrFRaiiQOh5Oo-4" value="" style="endArrow=block;html=1;rounded=1;curved=0;endFill=0;fontFamily=Cascadia Mono;fontSize=10;startSize=6;endSize=10;exitX=0.917;exitY=1;exitDx=0;exitDy=0;exitPerimeter=0;" edge="1" parent="1">
          <mxGeometry width="50" height="50" relative="1" as="geometry">
            <mxPoint x="1850" y="3180" as="sourcePoint" />
            <mxPoint x="1870" y="3210" as="targetPoint" />
            <Array as="points">
              <mxPoint x="1850" y="3190" />
              <mxPoint x="1870" y="3190" />
            </Array>
          </mxGeometry>
        </mxCell>
        <mxCell id="5zgf7GItrFRaiiQOh5Oo-5" value="" style="endArrow=block;html=1;rounded=1;curved=0;endFill=0;fontFamily=Cascadia Mono;fontSize=10;startSize=6;endSize=10;" edge="1" parent="1">
          <mxGeometry width="50" height="50" relative="1" as="geometry">
            <mxPoint x="1890" y="3180" as="sourcePoint" />
            <mxPoint x="1870" y="3210" as="targetPoint" />
            <Array as="points">
              <mxPoint x="1890" y="3190" />
              <mxPoint x="1870" y="3190" />
            </Array>
          </mxGeometry>
        </mxCell>
        <mxCell id="5zgf7GItrFRaiiQOh5Oo-6" value="{disjoint, complete}" style="text;html=1;align=center;verticalAlign=middle;resizable=1;points=[];autosize=1;strokeColor=none;fillColor=none;fontFamily=Cascadia Mono;fontSize=8;fontStyle=2;spacing=0;" vertex="1" parent="1">
          <mxGeometry x="1870" y="3190" width="110" height="20" as="geometry" />
        </mxCell>
        <mxCell id="5zgf7GItrFRaiiQOh5Oo-7" value="Type" style="swimlane;fontStyle=1;align=center;verticalAlign=middle;childLayout=stackLayout;horizontal=1;startSize=20;horizontalStack=0;resizeParent=1;resizeLast=0;collapsible=0;marginBottom=0;rounded=0;shadow=0;strokeWidth=1;fontFamily=Cascadia Mono;fontSize=10;swimlaneLine=1;fillColor=default;glass=0;html=1;noLabel=0;snapToPoint=0;fixDash=0;" vertex="1" parent="1">
          <mxGeometry x="1840" y="3290" width="60" height="20" as="geometry">
            <mxRectangle x="220" y="130" width="160" height="26" as="alternateBounds" />
          </mxGeometry>
        </mxCell>
        <mxCell id="5zgf7GItrFRaiiQOh5Oo-8" value="" style="endArrow=none;html=1;rounded=1;flowAnimation=0;shadow=0;anchorPointDirection=1;curved=0;exitX=0.5;exitY=1;exitDx=0;exitDy=0;entryX=0.5;entryY=0;entryDx=0;entryDy=0;" edge="1" parent="1" source="5zgf7GItrFRaiiQOh5Oo-1" target="5zgf7GItrFRaiiQOh5Oo-7">
          <mxGeometry width="50" height="50" relative="1" as="geometry">
            <mxPoint x="1870" y="3330" as="sourcePoint" />
            <mxPoint x="1870" y="3270" as="targetPoint" />
            <Array as="points" />
          </mxGeometry>
        </mxCell>
        <mxCell id="5zgf7GItrFRaiiQOh5Oo-9" value="cons_type" style="text;html=1;align=center;verticalAlign=middle;resizable=1;points=[];autosize=1;strokeColor=none;fillColor=none;fontFamily=Cascadia Mono;fontSize=10;fontStyle=0;labelBackgroundColor=default;spacing=0;" vertex="1" parent="1">
          <mxGeometry x="1835" y="3250" width="70" height="20" as="geometry" />
        </mxCell>
        <mxCell id="5zgf7GItrFRaiiQOh5Oo-11" value="1..1" style="text;html=1;align=center;verticalAlign=middle;resizable=1;points=[];autosize=1;strokeColor=none;fillColor=none;fontFamily=Cascadia Mono;fontSize=8;spacing=0;" vertex="1" parent="1">
          <mxGeometry x="1870" y="3270" width="40" height="20" as="geometry" />
        </mxCell>
        <mxCell id="5zgf7GItrFRaiiQOh5Oo-12" value="0..*" style="text;html=1;align=center;verticalAlign=middle;resizable=1;points=[];autosize=1;strokeColor=none;fillColor=none;fontFamily=Cascadia Mono;fontSize=8;spacing=0;" vertex="1" parent="1">
          <mxGeometry x="1870" y="3230" width="40" height="20" as="geometry" />
        </mxCell>
        <mxCell id="5zgf7GItrFRaiiQOh5Oo-13" value="Value" style="swimlane;fontStyle=1;align=center;verticalAlign=middle;childLayout=stackLayout;horizontal=1;startSize=20;horizontalStack=0;resizeParent=1;resizeLast=0;collapsible=0;marginBottom=0;rounded=0;shadow=0;strokeWidth=1;fontFamily=Cascadia Mono;fontSize=10;swimlaneLine=1;fillColor=default;glass=0;html=1;noLabel=0;snapToPoint=0;fixDash=0;" vertex="1" parent="1">
          <mxGeometry x="1840" y="3370" width="60" height="20" as="geometry">
            <mxRectangle x="220" y="130" width="160" height="26" as="alternateBounds" />
          </mxGeometry>
        </mxCell>
        <mxCell id="5zgf7GItrFRaiiQOh5Oo-15" value="" style="endArrow=none;html=1;rounded=1;flowAnimation=0;shadow=0;anchorPointDirection=1;curved=0;exitX=0.5;exitY=1;exitDx=0;exitDy=0;entryX=0.5;entryY=0;entryDx=0;entryDy=0;" edge="1" parent="1">
          <mxGeometry width="50" height="50" relative="1" as="geometry">
            <mxPoint x="1870" y="3310" as="sourcePoint" />
            <mxPoint x="1870" y="3370" as="targetPoint" />
            <Array as="points" />
          </mxGeometry>
        </mxCell>
        <mxCell id="5zgf7GItrFRaiiQOh5Oo-16" value="type_value" style="text;html=1;align=center;verticalAlign=middle;resizable=1;points=[];autosize=1;strokeColor=none;fillColor=none;fontFamily=Cascadia Mono;fontSize=10;fontStyle=0;labelBackgroundColor=default;spacing=0;" vertex="1" parent="1">
          <mxGeometry x="1830" y="3330" width="80" height="20" as="geometry" />
        </mxCell>
        <mxCell id="5zgf7GItrFRaiiQOh5Oo-17" value="1..1" style="text;html=1;align=center;verticalAlign=middle;resizable=1;points=[];autosize=1;strokeColor=none;fillColor=none;fontFamily=Cascadia Mono;fontSize=8;spacing=0;" vertex="1" parent="1">
          <mxGeometry x="1870" y="3310" width="40" height="20" as="geometry" />
        </mxCell>
        <mxCell id="5zgf7GItrFRaiiQOh5Oo-18" value="0..*" style="text;html=1;align=center;verticalAlign=middle;resizable=1;points=[];autosize=1;strokeColor=none;fillColor=none;fontFamily=Cascadia Mono;fontSize=8;spacing=0;" vertex="1" parent="1">
          <mxGeometry x="1870" y="3350" width="40" height="20" as="geometry" />
        </mxCell>
        <mxCell id="5zgf7GItrFRaiiQOh5Oo-20" value="" style="endArrow=none;html=1;rounded=1;flowAnimation=0;shadow=0;anchorPointDirection=1;curved=0;entryX=0;entryY=0.5;entryDx=0;entryDy=0;exitX=0;exitY=0.5;exitDx=0;exitDy=0;" edge="1" parent="1" source="5zgf7GItrFRaiiQOh5Oo-3" target="5zgf7GItrFRaiiQOh5Oo-13">
          <mxGeometry width="50" height="50" relative="1" as="geometry">
            <mxPoint x="1740" y="3170" as="sourcePoint" />
            <mxPoint x="1720" y="3310" as="targetPoint" />
            <Array as="points">
              <mxPoint x="1780" y="3170" />
              <mxPoint x="1780" y="3380" />
            </Array>
          </mxGeometry>
        </mxCell>
        <mxCell id="5zgf7GItrFRaiiQOh5Oo-22" value="0..*" style="text;html=1;align=center;verticalAlign=middle;resizable=1;points=[];autosize=1;strokeColor=none;fillColor=none;fontFamily=Cascadia Mono;fontSize=8;spacing=0;" vertex="1" parent="1">
          <mxGeometry x="1780" y="3170" width="40" height="20" as="geometry" />
        </mxCell>
        <mxCell id="5zgf7GItrFRaiiQOh5Oo-23" value="1..1" style="text;html=1;align=center;verticalAlign=middle;resizable=1;points=[];autosize=1;strokeColor=none;fillColor=none;fontFamily=Cascadia Mono;fontSize=8;spacing=0;" vertex="1" parent="1">
          <mxGeometry x="1800" y="3360" width="40" height="20" as="geometry" />
        </mxCell>
        <mxCell id="5zgf7GItrFRaiiQOh5Oo-24" value="cons_value" style="text;html=1;align=center;verticalAlign=middle;resizable=1;points=[];autosize=1;strokeColor=none;fillColor=none;fontFamily=Cascadia Mono;fontSize=10;fontStyle=0;labelBackgroundColor=default;spacing=0;" vertex="1" parent="1">
          <mxGeometry x="1740" y="3260" width="80" height="30" as="geometry" />
        </mxCell>
        <mxCell id="5zgf7GItrFRaiiQOh5Oo-25" value="Number" style="swimlane;fontStyle=1;align=center;verticalAlign=middle;childLayout=stackLayout;horizontal=1;startSize=20;horizontalStack=0;resizeParent=1;resizeLast=0;collapsible=0;marginBottom=0;rounded=0;shadow=0;strokeWidth=1;fontFamily=Cascadia Mono;fontSize=10;swimlaneLine=1;fillColor=default;glass=0;html=1;noLabel=0;snapToPoint=0;fixDash=0;" vertex="1" parent="1">
          <mxGeometry x="1870" y="4000" width="80" height="40" as="geometry">
            <mxRectangle x="220" y="130" width="160" height="26" as="alternateBounds" />
          </mxGeometry>
        </mxCell>
        <mxCell id="5zgf7GItrFRaiiQOh5Oo-26" value="Integer" style="swimlane;fontStyle=1;align=center;verticalAlign=middle;childLayout=stackLayout;horizontal=1;startSize=20;horizontalStack=0;resizeParent=1;resizeLast=0;collapsible=0;marginBottom=0;rounded=0;shadow=0;strokeWidth=1;fontFamily=Cascadia Mono;fontSize=10;swimlaneLine=1;fillColor=default;glass=0;html=1;noLabel=0;snapToPoint=0;fixDash=0;" vertex="1" parent="1">
          <mxGeometry x="1930" y="3310" width="100" height="20" as="geometry">
            <mxRectangle x="220" y="130" width="160" height="26" as="alternateBounds" />
          </mxGeometry>
        </mxCell>
        <mxCell id="5zgf7GItrFRaiiQOh5Oo-27" value="Float" style="swimlane;fontStyle=1;align=center;verticalAlign=middle;childLayout=stackLayout;horizontal=1;startSize=20;horizontalStack=0;resizeParent=1;resizeLast=0;collapsible=0;marginBottom=0;rounded=0;shadow=0;strokeWidth=1;fontFamily=Cascadia Mono;fontSize=10;swimlaneLine=1;fillColor=default;glass=0;html=1;noLabel=0;snapToPoint=0;fixDash=0;" vertex="1" parent="1">
          <mxGeometry x="1930" y="3350" width="100" height="20" as="geometry">
            <mxRectangle x="220" y="130" width="160" height="26" as="alternateBounds" />
          </mxGeometry>
        </mxCell>
        <mxCell id="5zgf7GItrFRaiiQOh5Oo-28" value="" style="endArrow=block;html=1;rounded=1;curved=0;endFill=0;fontFamily=Cascadia Mono;fontSize=10;startSize=6;endSize=10;exitX=0;exitY=0.5;exitDx=0;exitDy=0;" edge="1" parent="1" source="5zgf7GItrFRaiiQOh5Oo-26">
          <mxGeometry width="50" height="50" relative="1" as="geometry">
            <mxPoint x="2040" y="3490" as="sourcePoint" />
            <mxPoint x="1900" y="3300" as="targetPoint" />
            <Array as="points">
              <mxPoint x="1920" y="3320" />
              <mxPoint x="1920" y="3300" />
            </Array>
          </mxGeometry>
        </mxCell>
        <mxCell id="5zgf7GItrFRaiiQOh5Oo-29" value="" style="endArrow=block;html=1;rounded=1;curved=0;endFill=0;fontFamily=Cascadia Mono;fontSize=10;startSize=6;endSize=10;exitX=0.111;exitY=1;exitDx=0;exitDy=0;exitPerimeter=0;" edge="1" parent="1">
          <mxGeometry width="50" height="50" relative="1" as="geometry">
            <mxPoint x="1901" y="3970" as="sourcePoint" />
            <mxPoint x="1880" y="4000" as="targetPoint" />
            <Array as="points">
              <mxPoint x="1900" y="3980" />
              <mxPoint x="1880" y="3980" />
            </Array>
          </mxGeometry>
        </mxCell>
        <mxCell id="5zgf7GItrFRaiiQOh5Oo-30" value="{disjoint, complete}" style="text;html=1;align=center;verticalAlign=middle;resizable=1;points=[];autosize=1;strokeColor=none;fillColor=none;fontFamily=Cascadia Mono;fontSize=8;fontStyle=2;spacing=0;" vertex="1" parent="1">
          <mxGeometry x="1910" y="3965" width="110" height="20" as="geometry" />
        </mxCell>
        <mxCell id="5zgf7GItrFRaiiQOh5Oo-33" value="" style="endArrow=block;html=1;rounded=1;curved=0;endFill=0;fontFamily=Cascadia Mono;fontSize=10;startSize=6;endSize=10;exitX=0;exitY=0.5;exitDx=0;exitDy=0;" edge="1" parent="1" source="5zgf7GItrFRaiiQOh5Oo-27">
          <mxGeometry width="50" height="50" relative="1" as="geometry">
            <mxPoint x="1940" y="3290" as="sourcePoint" />
            <mxPoint x="1900" y="3300" as="targetPoint" />
            <Array as="points">
              <mxPoint x="1920" y="3360" />
              <mxPoint x="1920" y="3300" />
            </Array>
          </mxGeometry>
        </mxCell>
        <mxCell id="5zgf7GItrFRaiiQOh5Oo-34" value="Character" style="swimlane;fontStyle=1;align=center;verticalAlign=middle;childLayout=stackLayout;horizontal=1;startSize=20;horizontalStack=0;resizeParent=1;resizeLast=0;collapsible=0;marginBottom=0;rounded=0;shadow=0;strokeWidth=1;fontFamily=Cascadia Mono;fontSize=10;swimlaneLine=1;fillColor=default;glass=0;html=1;noLabel=0;snapToPoint=0;fixDash=0;" vertex="1" parent="1">
          <mxGeometry x="1930" y="3270" width="100" height="20" as="geometry">
            <mxRectangle x="220" y="130" width="160" height="26" as="alternateBounds" />
          </mxGeometry>
        </mxCell>
        <mxCell id="5zgf7GItrFRaiiQOh5Oo-35" value="" style="endArrow=block;html=1;rounded=1;curved=0;endFill=0;fontFamily=Cascadia Mono;fontSize=10;startSize=6;endSize=10;exitX=0;exitY=0.5;exitDx=0;exitDy=0;" edge="1" parent="1" source="5zgf7GItrFRaiiQOh5Oo-34">
          <mxGeometry width="50" height="50" relative="1" as="geometry">
            <mxPoint x="2040" y="3450" as="sourcePoint" />
            <mxPoint x="1900" y="3300" as="targetPoint" />
            <Array as="points">
              <mxPoint x="1920" y="3280" />
              <mxPoint x="1920" y="3300" />
            </Array>
          </mxGeometry>
        </mxCell>
        <mxCell id="5zgf7GItrFRaiiQOh5Oo-36" value="String" style="swimlane;fontStyle=1;align=center;verticalAlign=middle;childLayout=stackLayout;horizontal=1;startSize=20;horizontalStack=0;resizeParent=1;resizeLast=0;collapsible=0;marginBottom=0;rounded=0;shadow=0;strokeWidth=1;fontFamily=Cascadia Mono;fontSize=10;swimlaneLine=1;fillColor=default;glass=0;html=1;noLabel=0;snapToPoint=0;fixDash=0;" vertex="1" parent="1">
          <mxGeometry x="1930" y="3230" width="100" height="20" as="geometry">
            <mxRectangle x="220" y="130" width="160" height="26" as="alternateBounds" />
          </mxGeometry>
        </mxCell>
        <mxCell id="5zgf7GItrFRaiiQOh5Oo-37" value="" style="endArrow=block;html=1;rounded=1;curved=0;endFill=0;fontFamily=Cascadia Mono;fontSize=10;startSize=6;endSize=10;exitX=0;exitY=0.5;exitDx=0;exitDy=0;" edge="1" parent="1" source="5zgf7GItrFRaiiQOh5Oo-36">
          <mxGeometry width="50" height="50" relative="1" as="geometry">
            <mxPoint x="1940" y="3290" as="sourcePoint" />
            <mxPoint x="1900" y="3300" as="targetPoint" />
            <Array as="points">
              <mxPoint x="1920" y="3240" />
              <mxPoint x="1920" y="3300" />
            </Array>
          </mxGeometry>
        </mxCell>
        <mxCell id="5zgf7GItrFRaiiQOh5Oo-38" value="{disjoint, complete}" style="text;html=1;align=center;verticalAlign=middle;resizable=1;points=[];autosize=1;strokeColor=none;fillColor=none;fontFamily=Cascadia Mono;fontSize=8;fontStyle=2;spacing=0;" vertex="1" parent="1">
          <mxGeometry x="1920" y="3290" width="110" height="20" as="geometry" />
        </mxCell>
        <mxCell id="5zgf7GItrFRaiiQOh5Oo-39" value="" style="endArrow=block;html=1;rounded=1;curved=0;endFill=0;fontFamily=Cascadia Mono;fontSize=10;startSize=6;endSize=10;exitX=0.5;exitY=0;exitDx=0;exitDy=0;entryX=1;entryY=0.5;entryDx=0;entryDy=0;" edge="1" parent="1" source="5zgf7GItrFRaiiQOh5Oo-36" target="5zgf7GItrFRaiiQOh5Oo-1">
          <mxGeometry width="50" height="50" relative="1" as="geometry">
            <mxPoint x="1940" y="3250" as="sourcePoint" />
            <mxPoint x="1910" y="3310" as="targetPoint" />
            <Array as="points">
              <mxPoint x="1980" y="3220" />
            </Array>
          </mxGeometry>
        </mxCell>
        <mxCell id="5zgf7GItrFRaiiQOh5Oo-40" value="- a string is a list of *Character*&lt;br&gt;- all values in *Cons* are of the *Type* of *List*&lt;div&gt;- should I distinguish tuple between *()* and with values?&lt;/div&gt;&lt;div&gt;- *TypeAlias* can&#39;t be alias to itself&lt;/div&gt;&lt;div&gt;- not sure about that 1..1 on build_constructor&lt;/div&gt;&lt;div&gt;- not sure about that 0..* on build_constructor&lt;/div&gt;&lt;div&gt;- a constructor might use *TypeVariables*&lt;/div&gt;" style="text;html=1;align=left;verticalAlign=middle;resizable=1;points=[];autosize=1;strokeColor=none;fillColor=none;fontFamily=Cascadia Mono;fontSize=10;fontStyle=0;labelBackgroundColor=default;spacing=0;" vertex="1" parent="1">
          <mxGeometry x="1355" y="3310" width="360" height="90" as="geometry" />
        </mxCell>
        <mxCell id="5zgf7GItrFRaiiQOh5Oo-41" value="Tuple" style="swimlane;fontStyle=1;align=center;verticalAlign=middle;childLayout=stackLayout;horizontal=1;startSize=20;horizontalStack=0;resizeParent=1;resizeLast=0;collapsible=0;marginBottom=0;rounded=0;shadow=0;strokeWidth=1;fontFamily=Cascadia Mono;fontSize=10;swimlaneLine=1;fillColor=default;glass=0;html=1;noLabel=0;snapToPoint=0;fixDash=0;" vertex="1" parent="1">
          <mxGeometry x="1850" y="3450" width="40" height="20" as="geometry">
            <mxRectangle x="220" y="130" width="160" height="26" as="alternateBounds" />
          </mxGeometry>
        </mxCell>
        <mxCell id="5zgf7GItrFRaiiQOh5Oo-42" value="" style="endArrow=none;html=1;rounded=1;flowAnimation=0;shadow=0;anchorPointDirection=1;curved=0;exitX=0.5;exitY=1;exitDx=0;exitDy=0;entryX=0.5;entryY=0;entryDx=0;entryDy=0;" edge="1" parent="1">
          <mxGeometry width="50" height="50" relative="1" as="geometry">
            <mxPoint x="1870" y="3390" as="sourcePoint" />
            <mxPoint x="1870" y="3450" as="targetPoint" />
            <Array as="points" />
          </mxGeometry>
        </mxCell>
        <mxCell id="5zgf7GItrFRaiiQOh5Oo-43" value="tuple_value" style="text;html=1;align=center;verticalAlign=middle;resizable=1;points=[];autosize=1;strokeColor=none;fillColor=none;fontFamily=Cascadia Mono;fontSize=10;fontStyle=0;labelBackgroundColor=default;spacing=0;" vertex="1" parent="1">
          <mxGeometry x="1830" y="3410" width="80" height="20" as="geometry" />
        </mxCell>
        <mxCell id="5zgf7GItrFRaiiQOh5Oo-44" value="0..*" style="text;html=1;align=center;verticalAlign=middle;resizable=1;points=[];autosize=1;strokeColor=none;fillColor=none;fontFamily=Cascadia Mono;fontSize=8;spacing=0;" vertex="1" parent="1">
          <mxGeometry x="1870" y="3390" width="40" height="20" as="geometry" />
        </mxCell>
        <mxCell id="5zgf7GItrFRaiiQOh5Oo-45" value="0..*" style="text;html=1;align=center;verticalAlign=middle;resizable=1;points=[];autosize=1;strokeColor=none;fillColor=none;fontFamily=Cascadia Mono;fontSize=8;spacing=0;" vertex="1" parent="1">
          <mxGeometry x="1870" y="3430" width="40" height="20" as="geometry" />
        </mxCell>
        <mxCell id="5zgf7GItrFRaiiQOh5Oo-46" value="TypeAlias" style="swimlane;fontStyle=1;align=center;verticalAlign=middle;childLayout=stackLayout;horizontal=1;startSize=20;horizontalStack=0;resizeParent=1;resizeLast=0;collapsible=0;marginBottom=0;rounded=0;shadow=0;strokeWidth=1;fontFamily=Cascadia Mono;fontSize=10;swimlaneLine=1;fillColor=default;glass=0;html=1;noLabel=0;snapToPoint=0;fixDash=0;" vertex="1" parent="1">
          <mxGeometry x="1930" y="3390" width="100" height="20" as="geometry">
            <mxRectangle x="220" y="130" width="160" height="26" as="alternateBounds" />
          </mxGeometry>
        </mxCell>
        <mxCell id="5zgf7GItrFRaiiQOh5Oo-47" value="Type" style="swimlane;fontStyle=1;align=center;verticalAlign=middle;childLayout=stackLayout;horizontal=1;startSize=20;horizontalStack=0;resizeParent=1;resizeLast=0;collapsible=0;marginBottom=0;rounded=0;shadow=0;strokeWidth=1;fontFamily=Cascadia Mono;fontSize=10;swimlaneLine=1;fillColor=default;glass=0;html=1;noLabel=0;snapToPoint=0;fixDash=0;dashed=1;" vertex="1" parent="1">
          <mxGeometry x="2110" y="3390" width="60" height="20" as="geometry">
            <mxRectangle x="220" y="130" width="160" height="26" as="alternateBounds" />
          </mxGeometry>
        </mxCell>
        <mxCell id="5zgf7GItrFRaiiQOh5Oo-48" value="" style="endArrow=none;html=1;rounded=1;flowAnimation=0;shadow=0;anchorPointDirection=1;curved=0;entryX=0;entryY=0.5;entryDx=0;entryDy=0;exitX=1;exitY=0.5;exitDx=0;exitDy=0;" edge="1" parent="1" source="5zgf7GItrFRaiiQOh5Oo-46" target="5zgf7GItrFRaiiQOh5Oo-47">
          <mxGeometry width="50" height="50" relative="1" as="geometry">
            <mxPoint x="2040" y="3400" as="sourcePoint" />
            <mxPoint x="2040" y="3510" as="targetPoint" />
            <Array as="points" />
          </mxGeometry>
        </mxCell>
        <mxCell id="5zgf7GItrFRaiiQOh5Oo-49" value="alias_type" style="text;html=1;align=center;verticalAlign=middle;resizable=1;points=[];autosize=1;strokeColor=none;fillColor=none;fontFamily=Cascadia Mono;fontSize=10;fontStyle=0;labelBackgroundColor=default;spacing=0;" vertex="1" parent="1">
          <mxGeometry x="2030" y="3380" width="80" height="20" as="geometry" />
        </mxCell>
        <mxCell id="5zgf7GItrFRaiiQOh5Oo-50" value="1..1" style="text;html=1;align=center;verticalAlign=middle;resizable=1;points=[];autosize=1;strokeColor=none;fillColor=none;fontFamily=Cascadia Mono;fontSize=8;spacing=0;" vertex="1" parent="1">
          <mxGeometry x="2070" y="3400" width="40" height="20" as="geometry" />
        </mxCell>
        <mxCell id="5zgf7GItrFRaiiQOh5Oo-51" value="0..*" style="text;html=1;align=center;verticalAlign=middle;resizable=1;points=[];autosize=1;strokeColor=none;fillColor=none;fontFamily=Cascadia Mono;fontSize=8;spacing=0;" vertex="1" parent="1">
          <mxGeometry x="2030" y="3400" width="40" height="20" as="geometry" />
        </mxCell>
        <mxCell id="5zgf7GItrFRaiiQOh5Oo-52" value="" style="endArrow=block;html=1;rounded=1;curved=0;endFill=0;fontFamily=Cascadia Mono;fontSize=10;startSize=6;endSize=10;exitX=0;exitY=0.5;exitDx=0;exitDy=0;" edge="1" parent="1" source="5zgf7GItrFRaiiQOh5Oo-46">
          <mxGeometry width="50" height="50" relative="1" as="geometry">
            <mxPoint x="1930" y="3360" as="sourcePoint" />
            <mxPoint x="1900" y="3300" as="targetPoint" />
            <Array as="points">
              <mxPoint x="1920" y="3400" />
              <mxPoint x="1920" y="3300" />
            </Array>
          </mxGeometry>
        </mxCell>
        <mxCell id="5zgf7GItrFRaiiQOh5Oo-53" value="NewType" style="swimlane;fontStyle=1;align=center;verticalAlign=middle;childLayout=stackLayout;horizontal=1;startSize=20;horizontalStack=0;resizeParent=1;resizeLast=0;collapsible=0;marginBottom=0;rounded=0;shadow=0;strokeWidth=1;fontFamily=Cascadia Mono;fontSize=10;swimlaneLine=1;fillColor=default;glass=0;html=1;noLabel=0;snapToPoint=0;fixDash=0;" vertex="1" parent="1">
          <mxGeometry x="1930" y="3430" width="100" height="20" as="geometry">
            <mxRectangle x="220" y="130" width="160" height="26" as="alternateBounds" />
          </mxGeometry>
        </mxCell>
        <mxCell id="5zgf7GItrFRaiiQOh5Oo-54" value="" style="endArrow=block;html=1;rounded=1;curved=0;endFill=0;fontFamily=Cascadia Mono;fontSize=10;startSize=6;endSize=10;exitX=0;exitY=0.5;exitDx=0;exitDy=0;" edge="1" parent="1" source="5zgf7GItrFRaiiQOh5Oo-53">
          <mxGeometry width="50" height="50" relative="1" as="geometry">
            <mxPoint x="1925" y="3440" as="sourcePoint" />
            <mxPoint x="1900" y="3300" as="targetPoint" />
            <Array as="points">
              <mxPoint x="1920" y="3440" />
              <mxPoint x="1920" y="3300" />
            </Array>
          </mxGeometry>
        </mxCell>
        <mxCell id="5zgf7GItrFRaiiQOh5Oo-55" value="Type" style="swimlane;fontStyle=1;align=center;verticalAlign=middle;childLayout=stackLayout;horizontal=1;startSize=20;horizontalStack=0;resizeParent=1;resizeLast=0;collapsible=0;marginBottom=0;rounded=0;shadow=0;strokeWidth=1;fontFamily=Cascadia Mono;fontSize=10;swimlaneLine=1;fillColor=default;glass=0;html=1;noLabel=0;snapToPoint=0;fixDash=0;dashed=1;" vertex="1" parent="1">
          <mxGeometry x="2120" y="3430" width="60" height="20" as="geometry">
            <mxRectangle x="220" y="130" width="160" height="26" as="alternateBounds" />
          </mxGeometry>
        </mxCell>
        <mxCell id="5zgf7GItrFRaiiQOh5Oo-56" value="" style="endArrow=none;html=1;rounded=1;flowAnimation=0;shadow=0;anchorPointDirection=1;curved=0;entryX=0;entryY=0.5;entryDx=0;entryDy=0;exitX=1;exitY=0.5;exitDx=0;exitDy=0;" edge="1" parent="1" target="5zgf7GItrFRaiiQOh5Oo-55">
          <mxGeometry width="50" height="50" relative="1" as="geometry">
            <mxPoint x="2030" y="3440" as="sourcePoint" />
            <mxPoint x="2040" y="3550" as="targetPoint" />
            <Array as="points" />
          </mxGeometry>
        </mxCell>
        <mxCell id="5zgf7GItrFRaiiQOh5Oo-57" value="newtype_type" style="text;html=1;align=center;verticalAlign=middle;resizable=1;points=[];autosize=1;strokeColor=none;fillColor=none;fontFamily=Cascadia Mono;fontSize=10;fontStyle=0;labelBackgroundColor=default;spacing=0;" vertex="1" parent="1">
          <mxGeometry x="2030" y="3420" width="90" height="20" as="geometry" />
        </mxCell>
        <mxCell id="5zgf7GItrFRaiiQOh5Oo-58" value="1..1" style="text;html=1;align=center;verticalAlign=middle;resizable=1;points=[];autosize=1;strokeColor=none;fillColor=none;fontFamily=Cascadia Mono;fontSize=8;spacing=0;" vertex="1" parent="1">
          <mxGeometry x="2080" y="3440" width="40" height="20" as="geometry" />
        </mxCell>
        <mxCell id="5zgf7GItrFRaiiQOh5Oo-59" value="0..*" style="text;html=1;align=center;verticalAlign=middle;resizable=1;points=[];autosize=1;strokeColor=none;fillColor=none;fontFamily=Cascadia Mono;fontSize=8;spacing=0;" vertex="1" parent="1">
          <mxGeometry x="2030" y="3440" width="40" height="20" as="geometry" />
        </mxCell>
        <mxCell id="5zgf7GItrFRaiiQOh5Oo-60" value="Type(Build)" style="swimlane;fontStyle=1;align=center;verticalAlign=middle;childLayout=stackLayout;horizontal=1;startSize=20;horizontalStack=0;resizeParent=1;resizeLast=0;collapsible=0;marginBottom=0;rounded=0;shadow=0;strokeWidth=1;fontFamily=Cascadia Mono;fontSize=10;swimlaneLine=1;fillColor=default;glass=0;html=1;noLabel=0;snapToPoint=0;fixDash=0;" vertex="1" parent="1">
          <mxGeometry x="1930" y="3470" width="100" height="20" as="geometry">
            <mxRectangle x="220" y="130" width="160" height="26" as="alternateBounds" />
          </mxGeometry>
        </mxCell>
        <mxCell id="5zgf7GItrFRaiiQOh5Oo-61" value="" style="endArrow=block;html=1;rounded=1;curved=0;endFill=0;fontFamily=Cascadia Mono;fontSize=10;startSize=6;endSize=10;exitX=0;exitY=0.5;exitDx=0;exitDy=0;" edge="1" parent="1" source="5zgf7GItrFRaiiQOh5Oo-60">
          <mxGeometry width="50" height="50" relative="1" as="geometry">
            <mxPoint x="1940" y="3450" as="sourcePoint" />
            <mxPoint x="1900" y="3300" as="targetPoint" />
            <Array as="points">
              <mxPoint x="1920" y="3480" />
              <mxPoint x="1920" y="3300" />
            </Array>
          </mxGeometry>
        </mxCell>
        <mxCell id="5zgf7GItrFRaiiQOh5Oo-62" value="Constructor" style="swimlane;fontStyle=1;align=center;verticalAlign=middle;childLayout=stackLayout;horizontal=1;startSize=20;horizontalStack=0;resizeParent=1;resizeLast=0;collapsible=0;marginBottom=0;rounded=0;shadow=0;strokeWidth=1;fontFamily=Cascadia Mono;fontSize=10;swimlaneLine=1;fillColor=default;glass=0;html=1;noLabel=0;snapToPoint=0;fixDash=0;" vertex="1" parent="1">
          <mxGeometry x="2150" y="3470" width="100" height="20" as="geometry">
            <mxRectangle x="220" y="130" width="160" height="26" as="alternateBounds" />
          </mxGeometry>
        </mxCell>
        <mxCell id="5zgf7GItrFRaiiQOh5Oo-63" value="build_constructor" style="text;html=1;align=center;verticalAlign=middle;resizable=1;points=[];autosize=1;strokeColor=none;fillColor=none;fontFamily=Cascadia Mono;fontSize=10;fontStyle=0;labelBackgroundColor=default;spacing=0;" vertex="1" parent="1">
          <mxGeometry x="2030" y="3460" width="120" height="20" as="geometry" />
        </mxCell>
        <mxCell id="5zgf7GItrFRaiiQOh5Oo-64" value="" style="endArrow=none;html=1;rounded=1;flowAnimation=0;shadow=0;anchorPointDirection=1;curved=0;entryX=0;entryY=0.5;entryDx=0;entryDy=0;exitX=1;exitY=0.5;exitDx=0;exitDy=0;" edge="1" parent="1" target="5zgf7GItrFRaiiQOh5Oo-62">
          <mxGeometry width="50" height="50" relative="1" as="geometry">
            <mxPoint x="2030" y="3480" as="sourcePoint" />
            <mxPoint x="2120" y="3480" as="targetPoint" />
            <Array as="points" />
          </mxGeometry>
        </mxCell>
        <mxCell id="5zgf7GItrFRaiiQOh5Oo-65" value="0..*" style="text;html=1;align=center;verticalAlign=middle;resizable=1;points=[];autosize=1;strokeColor=none;fillColor=none;fontFamily=Cascadia Mono;fontSize=8;spacing=0;" vertex="1" parent="1">
          <mxGeometry x="2110" y="3480" width="40" height="20" as="geometry" />
        </mxCell>
        <mxCell id="5zgf7GItrFRaiiQOh5Oo-66" value="1..1" style="text;html=1;align=center;verticalAlign=middle;resizable=1;points=[];autosize=1;strokeColor=none;fillColor=none;fontFamily=Cascadia Mono;fontSize=8;spacing=0;" vertex="1" parent="1">
          <mxGeometry x="2030" y="3480" width="40" height="20" as="geometry" />
        </mxCell>
        <mxCell id="5zgf7GItrFRaiiQOh5Oo-67" value="AssociatedTypes" style="swimlane;fontStyle=1;align=center;verticalAlign=middle;childLayout=stackLayout;horizontal=1;startSize=20;horizontalStack=0;resizeParent=1;resizeLast=0;collapsible=0;marginBottom=0;rounded=0;shadow=0;strokeWidth=1;fontFamily=Cascadia Mono;fontSize=10;swimlaneLine=1;fillColor=default;glass=0;html=1;noLabel=0;snapToPoint=0;fixDash=0;" vertex="1" parent="1">
          <mxGeometry x="2070" y="3600" width="100" height="20" as="geometry">
            <mxRectangle x="220" y="130" width="160" height="26" as="alternateBounds" />
          </mxGeometry>
        </mxCell>
        <mxCell id="5zgf7GItrFRaiiQOh5Oo-68" value="TypeVariables" style="swimlane;fontStyle=1;align=center;verticalAlign=middle;childLayout=stackLayout;horizontal=1;startSize=20;horizontalStack=0;resizeParent=1;resizeLast=0;collapsible=0;marginBottom=0;rounded=0;shadow=0;strokeWidth=1;fontFamily=Cascadia Mono;fontSize=10;swimlaneLine=1;fillColor=default;glass=0;html=1;noLabel=0;snapToPoint=0;fixDash=0;" vertex="1" parent="1">
          <mxGeometry x="1930" y="3550" width="90" height="20" as="geometry">
            <mxRectangle x="220" y="130" width="160" height="26" as="alternateBounds" />
          </mxGeometry>
        </mxCell>
        <mxCell id="5zgf7GItrFRaiiQOh5Oo-77" value="Function" style="swimlane;fontStyle=1;align=center;verticalAlign=middle;childLayout=stackLayout;horizontal=1;startSize=20;horizontalStack=0;resizeParent=1;resizeLast=0;collapsible=0;marginBottom=0;rounded=0;shadow=0;strokeWidth=1;fontFamily=Cascadia Mono;fontSize=10;swimlaneLine=1;fillColor=default;glass=0;html=1;noLabel=0;snapToPoint=0;fixDash=0;" vertex="1" parent="1">
          <mxGeometry x="2360" y="3540" width="100" height="20" as="geometry">
            <mxRectangle x="220" y="130" width="160" height="26" as="alternateBounds" />
          </mxGeometry>
        </mxCell>
        <mxCell id="5zgf7GItrFRaiiQOh5Oo-78" value="" style="endArrow=block;html=1;rounded=1;curved=0;endFill=0;fontFamily=Cascadia Mono;fontSize=10;startSize=6;endSize=10;exitX=1;exitY=0.5;exitDx=0;exitDy=0;entryX=0;entryY=0.5;entryDx=0;entryDy=0;" edge="1" parent="1" target="5zgf7GItrFRaiiQOh5Oo-77">
          <mxGeometry width="50" height="50" relative="1" as="geometry">
            <mxPoint x="2330" y="3530" as="sourcePoint" />
            <mxPoint x="2340" y="3370" as="targetPoint" />
            <Array as="points">
              <mxPoint x="2340" y="3530" />
              <mxPoint x="2340" y="3550" />
            </Array>
          </mxGeometry>
        </mxCell>
        <mxCell id="5zgf7GItrFRaiiQOh5Oo-79" value="ConstructorFunction" style="swimlane;fontStyle=1;align=center;verticalAlign=middle;childLayout=stackLayout;horizontal=1;startSize=20;horizontalStack=0;resizeParent=1;resizeLast=0;collapsible=0;marginBottom=0;rounded=0;shadow=0;strokeWidth=1;fontFamily=Cascadia Mono;fontSize=10;swimlaneLine=1;fillColor=default;glass=0;html=1;noLabel=0;snapToPoint=0;fixDash=0;" vertex="1" parent="1">
          <mxGeometry x="2210" y="3520" width="120" height="20" as="geometry">
            <mxRectangle x="220" y="130" width="160" height="26" as="alternateBounds" />
          </mxGeometry>
        </mxCell>
        <mxCell id="5zgf7GItrFRaiiQOh5Oo-80" value="ConstructorConstructor?" style="swimlane;fontStyle=1;align=center;verticalAlign=middle;childLayout=stackLayout;horizontal=1;startSize=20;horizontalStack=0;resizeParent=1;resizeLast=0;collapsible=0;marginBottom=0;rounded=0;shadow=0;strokeWidth=1;fontFamily=Cascadia Mono;fontSize=10;swimlaneLine=1;fillColor=default;glass=0;html=1;noLabel=0;snapToPoint=0;fixDash=0;" vertex="1" parent="1">
          <mxGeometry x="2050" y="3520" width="140" height="20" as="geometry">
            <mxRectangle x="220" y="130" width="160" height="26" as="alternateBounds" />
          </mxGeometry>
        </mxCell>
        <mxCell id="5zgf7GItrFRaiiQOh5Oo-82" value="" style="endArrow=none;html=1;rounded=1;flowAnimation=0;shadow=0;anchorPointDirection=1;curved=0;exitX=0.5;exitY=1;exitDx=0;exitDy=0;entryX=0.5;entryY=0;entryDx=0;entryDy=0;" edge="1" parent="1">
          <mxGeometry width="50" height="50" relative="1" as="geometry">
            <mxPoint x="1980" y="3490" as="sourcePoint" />
            <mxPoint x="1980" y="3550" as="targetPoint" />
            <Array as="points" />
          </mxGeometry>
        </mxCell>
        <mxCell id="5zgf7GItrFRaiiQOh5Oo-83" value="build_type_variables" style="text;html=1;align=center;verticalAlign=middle;resizable=1;points=[];autosize=1;strokeColor=none;fillColor=none;fontFamily=Cascadia Mono;fontSize=10;fontStyle=0;labelBackgroundColor=default;spacing=0;" vertex="1" parent="1">
          <mxGeometry x="1910" y="3510" width="140" height="20" as="geometry" />
        </mxCell>
        <mxCell id="5zgf7GItrFRaiiQOh5Oo-84" value="1..1" style="text;html=1;align=center;verticalAlign=middle;resizable=1;points=[];autosize=1;strokeColor=none;fillColor=none;fontFamily=Cascadia Mono;fontSize=8;spacing=0;" vertex="1" parent="1">
          <mxGeometry x="1980" y="3490" width="40" height="20" as="geometry" />
        </mxCell>
        <mxCell id="5zgf7GItrFRaiiQOh5Oo-85" value="0..*" style="text;html=1;align=center;verticalAlign=middle;resizable=1;points=[];autosize=1;strokeColor=none;fillColor=none;fontFamily=Cascadia Mono;fontSize=8;spacing=0;" vertex="1" parent="1">
          <mxGeometry x="1980" y="3530" width="40" height="20" as="geometry" />
        </mxCell>
        <mxCell id="5zgf7GItrFRaiiQOh5Oo-87" value="" style="endArrow=block;html=1;rounded=1;curved=0;endFill=0;fontFamily=Cascadia Mono;fontSize=10;startSize=6;endSize=10;entryX=0.5;entryY=1;entryDx=0;entryDy=0;exitX=0.083;exitY=0;exitDx=0;exitDy=0;exitPerimeter=0;" edge="1" parent="1" source="5zgf7GItrFRaiiQOh5Oo-79" target="5zgf7GItrFRaiiQOh5Oo-62">
          <mxGeometry width="50" height="50" relative="1" as="geometry">
            <mxPoint x="2230" y="3510" as="sourcePoint" />
            <mxPoint x="2275" y="3590" as="targetPoint" />
            <Array as="points">
              <mxPoint x="2220" y="3510" />
              <mxPoint x="2200" y="3510" />
            </Array>
          </mxGeometry>
        </mxCell>
        <mxCell id="5zgf7GItrFRaiiQOh5Oo-88" value="{disjoint, complete}" style="text;html=1;align=center;verticalAlign=middle;resizable=1;points=[];autosize=1;strokeColor=none;fillColor=none;fontFamily=Cascadia Mono;fontSize=8;fontStyle=2;spacing=0;" vertex="1" parent="1">
          <mxGeometry x="2200" y="3490" width="110" height="20" as="geometry" />
        </mxCell>
        <mxCell id="5zgf7GItrFRaiiQOh5Oo-89" value="" style="endArrow=block;html=1;rounded=1;curved=0;endFill=0;fontFamily=Cascadia Mono;fontSize=10;startSize=6;endSize=10;entryX=0;entryY=0;entryDx=0;entryDy=0;exitX=0.929;exitY=0;exitDx=0;exitDy=0;exitPerimeter=0;entryPerimeter=0;" edge="1" parent="1" source="5zgf7GItrFRaiiQOh5Oo-80" target="5zgf7GItrFRaiiQOh5Oo-88">
          <mxGeometry width="50" height="50" relative="1" as="geometry">
            <mxPoint x="2230" y="3530" as="sourcePoint" />
            <mxPoint x="2210" y="3500" as="targetPoint" />
            <Array as="points">
              <mxPoint x="2180" y="3510" />
              <mxPoint x="2200" y="3510" />
            </Array>
          </mxGeometry>
        </mxCell>
        <mxCell id="5zgf7GItrFRaiiQOh5Oo-90" value="" style="endArrow=none;html=1;rounded=1;flowAnimation=0;shadow=0;anchorPointDirection=1;curved=0;exitX=0.5;exitY=1;exitDx=0;exitDy=0;entryX=0.5;entryY=0;entryDx=0;entryDy=0;" edge="1" parent="1">
          <mxGeometry width="50" height="50" relative="1" as="geometry">
            <mxPoint x="2120" y="3540" as="sourcePoint" />
            <mxPoint x="2120" y="3600" as="targetPoint" />
            <Array as="points" />
          </mxGeometry>
        </mxCell>
        <mxCell id="5zgf7GItrFRaiiQOh5Oo-91" value="constructor_associated_types" style="text;html=1;align=center;verticalAlign=middle;resizable=1;points=[];autosize=1;strokeColor=none;fillColor=none;fontFamily=Cascadia Mono;fontSize=10;fontStyle=0;labelBackgroundColor=default;spacing=0;" vertex="1" parent="1">
          <mxGeometry x="2030" y="3560" width="180" height="20" as="geometry" />
        </mxCell>
        <mxCell id="5zgf7GItrFRaiiQOh5Oo-92" value="1..1" style="text;html=1;align=center;verticalAlign=middle;resizable=1;points=[];autosize=1;strokeColor=none;fillColor=none;fontFamily=Cascadia Mono;fontSize=8;spacing=0;" vertex="1" parent="1">
          <mxGeometry x="2120" y="3540" width="40" height="20" as="geometry" />
        </mxCell>
        <mxCell id="5zgf7GItrFRaiiQOh5Oo-93" value="0..*" style="text;html=1;align=center;verticalAlign=middle;resizable=1;points=[];autosize=1;strokeColor=none;fillColor=none;fontFamily=Cascadia Mono;fontSize=8;spacing=0;" vertex="1" parent="1">
          <mxGeometry x="2120" y="3580" width="40" height="20" as="geometry" />
        </mxCell>
        <mxCell id="5zgf7GItrFRaiiQOh5Oo-95" value="Argument" style="swimlane;fontStyle=1;align=center;verticalAlign=middle;childLayout=stackLayout;horizontal=1;startSize=20;horizontalStack=0;resizeParent=1;resizeLast=0;collapsible=0;marginBottom=0;rounded=0;shadow=0;strokeWidth=1;fontFamily=Cascadia Mono;fontSize=10;swimlaneLine=1;fillColor=default;glass=0;html=1;noLabel=0;snapToPoint=0;fixDash=0;" vertex="1" parent="1">
          <mxGeometry x="2510" y="3540" width="60" height="20" as="geometry">
            <mxRectangle x="220" y="130" width="160" height="26" as="alternateBounds" />
          </mxGeometry>
        </mxCell>
        <mxCell id="5zgf7GItrFRaiiQOh5Oo-96" value="Expression (Body?)" style="swimlane;fontStyle=1;align=center;verticalAlign=middle;childLayout=stackLayout;horizontal=1;startSize=20;horizontalStack=0;resizeParent=1;resizeLast=0;collapsible=0;marginBottom=0;rounded=0;shadow=0;strokeWidth=1;fontFamily=Cascadia Mono;fontSize=10;swimlaneLine=1;fillColor=default;glass=0;html=1;noLabel=0;snapToPoint=0;fixDash=0;" vertex="1" parent="1">
          <mxGeometry x="2440" y="3580" width="120" height="20" as="geometry">
            <mxRectangle x="220" y="130" width="160" height="26" as="alternateBounds" />
          </mxGeometry>
        </mxCell>
        <mxCell id="5zgf7GItrFRaiiQOh5Oo-97" value="AnonymousFunction" style="swimlane;fontStyle=1;align=center;verticalAlign=middle;childLayout=stackLayout;horizontal=1;startSize=20;horizontalStack=0;resizeParent=1;resizeLast=0;collapsible=0;marginBottom=0;rounded=0;shadow=0;strokeWidth=1;fontFamily=Cascadia Mono;fontSize=10;swimlaneLine=1;fillColor=default;glass=0;html=1;noLabel=0;snapToPoint=0;fixDash=0;" vertex="1" parent="1">
          <mxGeometry x="2210" y="3560" width="120" height="20" as="geometry">
            <mxRectangle x="220" y="130" width="160" height="26" as="alternateBounds" />
          </mxGeometry>
        </mxCell>
        <mxCell id="5zgf7GItrFRaiiQOh5Oo-98" value="" style="endArrow=block;html=1;rounded=1;curved=0;endFill=0;fontFamily=Cascadia Mono;fontSize=10;startSize=6;endSize=10;exitX=1;exitY=0.5;exitDx=0;exitDy=0;" edge="1" parent="1" source="5zgf7GItrFRaiiQOh5Oo-97">
          <mxGeometry width="50" height="50" relative="1" as="geometry">
            <mxPoint x="2340" y="3590" as="sourcePoint" />
            <mxPoint x="2360" y="3550" as="targetPoint" />
            <Array as="points">
              <mxPoint x="2340" y="3570" />
              <mxPoint x="2340" y="3550" />
            </Array>
          </mxGeometry>
        </mxCell>
        <mxCell id="5zgf7GItrFRaiiQOh5Oo-99" value="{disjoint, complete}" style="text;html=1;align=center;verticalAlign=middle;resizable=1;points=[];autosize=1;strokeColor=none;fillColor=none;fontFamily=Cascadia Mono;fontSize=8;fontStyle=2;spacing=0;" vertex="1" parent="1">
          <mxGeometry x="2215" y="3540" width="110" height="20" as="geometry" />
        </mxCell>
        <mxCell id="5zgf7GItrFRaiiQOh5Oo-100" value="RegularFunction" style="swimlane;fontStyle=1;align=center;verticalAlign=middle;childLayout=stackLayout;horizontal=1;startSize=20;horizontalStack=0;resizeParent=1;resizeLast=0;collapsible=0;marginBottom=0;rounded=0;shadow=0;strokeWidth=1;fontFamily=Cascadia Mono;fontSize=10;swimlaneLine=1;fillColor=default;glass=0;html=1;noLabel=0;snapToPoint=0;fixDash=0;" vertex="1" parent="1">
          <mxGeometry x="2210" y="3600" width="120" height="20" as="geometry">
            <mxRectangle x="220" y="130" width="160" height="26" as="alternateBounds" />
          </mxGeometry>
        </mxCell>
        <mxCell id="5zgf7GItrFRaiiQOh5Oo-101" value="" style="endArrow=block;html=1;rounded=1;curved=0;endFill=0;fontFamily=Cascadia Mono;fontSize=10;startSize=6;endSize=10;exitX=1;exitY=0.5;exitDx=0;exitDy=0;" edge="1" parent="1" source="5zgf7GItrFRaiiQOh5Oo-100">
          <mxGeometry width="50" height="50" relative="1" as="geometry">
            <mxPoint x="2340" y="3580" as="sourcePoint" />
            <mxPoint x="2360" y="3550" as="targetPoint" />
            <Array as="points">
              <mxPoint x="2340" y="3610" />
              <mxPoint x="2340" y="3550" />
            </Array>
          </mxGeometry>
        </mxCell>
        <mxCell id="5zgf7GItrFRaiiQOh5Oo-102" value="just a name/type pair?&lt;div&gt;maybe a variable?&lt;/div&gt;" style="text;html=1;align=center;verticalAlign=middle;resizable=1;points=[];autosize=1;strokeColor=none;fillColor=none;fontFamily=Cascadia Mono;fontSize=10;fontStyle=0;labelBackgroundColor=default;spacing=0;" vertex="1" parent="1">
          <mxGeometry x="2465" y="3505" width="150" height="30" as="geometry" />
        </mxCell>
        <mxCell id="5zgf7GItrFRaiiQOh5Oo-104" value="" style="endArrow=block;html=1;rounded=1;curved=0;endFill=0;fontFamily=Cascadia Mono;fontSize=10;startSize=6;endSize=10;entryX=0;entryY=0.5;entryDx=0;entryDy=0;exitX=0;exitY=0.5;exitDx=0;exitDy=0;" edge="1" parent="1" source="5zgf7GItrFRaiiQOh5Oo-1" target="5zgf7GItrFRaiiQOh5Oo-7">
          <mxGeometry width="50" height="50" relative="1" as="geometry">
            <mxPoint x="1820" y="3220" as="sourcePoint" />
            <mxPoint x="1900" y="3230" as="targetPoint" />
            <Array as="points">
              <mxPoint x="1820" y="3220" />
              <mxPoint x="1820" y="3300" />
            </Array>
          </mxGeometry>
        </mxCell>
        <mxCell id="5zgf7GItrFRaiiQOh5Oo-105" value="Let" style="swimlane;fontStyle=1;align=center;verticalAlign=middle;childLayout=stackLayout;horizontal=1;startSize=20;horizontalStack=0;resizeParent=1;resizeLast=0;collapsible=0;marginBottom=0;rounded=0;shadow=0;strokeWidth=1;fontFamily=Cascadia Mono;fontSize=10;swimlaneLine=1;fillColor=default;glass=0;html=1;noLabel=0;snapToPoint=0;fixDash=0;" vertex="1" parent="1">
          <mxGeometry x="2470" y="3620" width="60" height="20" as="geometry">
            <mxRectangle x="220" y="130" width="160" height="26" as="alternateBounds" />
          </mxGeometry>
        </mxCell>
        <mxCell id="5zgf7GItrFRaiiQOh5Oo-106" value="" style="endArrow=block;html=1;rounded=1;curved=0;endFill=0;fontFamily=Cascadia Mono;fontSize=10;startSize=6;endSize=10;entryX=0.5;entryY=1;entryDx=0;entryDy=0;exitX=0.5;exitY=0;exitDx=0;exitDy=0;" edge="1" parent="1" source="5zgf7GItrFRaiiQOh5Oo-105" target="5zgf7GItrFRaiiQOh5Oo-96">
          <mxGeometry width="50" height="50" relative="1" as="geometry">
            <mxPoint x="2420" y="3660" as="sourcePoint" />
            <mxPoint x="2440" y="3630" as="targetPoint" />
            <Array as="points" />
          </mxGeometry>
        </mxCell>
        <mxCell id="5zgf7GItrFRaiiQOh5Oo-109" value="Operation" style="swimlane;fontStyle=1;align=center;verticalAlign=middle;childLayout=stackLayout;horizontal=1;startSize=20;horizontalStack=0;resizeParent=1;resizeLast=0;collapsible=0;marginBottom=0;rounded=0;shadow=0;strokeWidth=1;fontFamily=Cascadia Mono;fontSize=10;swimlaneLine=1;fillColor=default;glass=0;html=1;noLabel=0;snapToPoint=0;fixDash=0;" vertex="1" parent="1">
          <mxGeometry x="2210" y="3640" width="120" height="20" as="geometry">
            <mxRectangle x="220" y="130" width="160" height="26" as="alternateBounds" />
          </mxGeometry>
        </mxCell>
        <mxCell id="5zgf7GItrFRaiiQOh5Oo-110" value="&lt;div&gt;basically a function&lt;/div&gt;&lt;div&gt;with 2 arguments,&lt;/div&gt;&lt;div&gt;in parenthesees&lt;br&gt;&lt;/div&gt;" style="text;html=1;align=center;verticalAlign=middle;resizable=1;points=[];autosize=1;strokeColor=none;fillColor=none;fontFamily=Cascadia Mono;fontSize=10;fontStyle=0;labelBackgroundColor=default;spacing=0;" vertex="1" parent="1">
          <mxGeometry x="2200" y="3670" width="140" height="50" as="geometry" />
        </mxCell>
        <mxCell id="5zgf7GItrFRaiiQOh5Oo-111" value="" style="endArrow=block;html=1;rounded=1;curved=0;endFill=0;fontFamily=Cascadia Mono;fontSize=10;startSize=6;endSize=10;exitX=1;exitY=0.5;exitDx=0;exitDy=0;" edge="1" parent="1" source="5zgf7GItrFRaiiQOh5Oo-109">
          <mxGeometry width="50" height="50" relative="1" as="geometry">
            <mxPoint x="2340" y="3620" as="sourcePoint" />
            <mxPoint x="2360" y="3550" as="targetPoint" />
            <Array as="points">
              <mxPoint x="2340" y="3650" />
              <mxPoint x="2340" y="3550" />
            </Array>
          </mxGeometry>
        </mxCell>
        <mxCell id="5zgf7GItrFRaiiQOh5Oo-112" value="Class" style="swimlane;fontStyle=1;align=center;verticalAlign=middle;childLayout=stackLayout;horizontal=1;startSize=20;horizontalStack=0;resizeParent=1;resizeLast=0;collapsible=0;marginBottom=0;rounded=0;shadow=0;strokeWidth=1;fontFamily=Cascadia Mono;fontSize=10;swimlaneLine=1;fillColor=default;glass=0;html=1;noLabel=0;snapToPoint=0;fixDash=0;" vertex="1" parent="1">
          <mxGeometry x="2070" y="3650" width="80" height="20" as="geometry">
            <mxRectangle x="220" y="130" width="160" height="26" as="alternateBounds" />
          </mxGeometry>
        </mxCell>
        <mxCell id="5zgf7GItrFRaiiQOh5Oo-113" value="Type" style="swimlane;fontStyle=1;align=center;verticalAlign=middle;childLayout=stackLayout;horizontal=1;startSize=20;horizontalStack=0;resizeParent=1;resizeLast=0;collapsible=0;marginBottom=0;rounded=0;shadow=0;strokeWidth=1;fontFamily=Cascadia Mono;fontSize=10;swimlaneLine=1;fillColor=default;glass=0;html=1;noLabel=0;snapToPoint=0;fixDash=0;" vertex="1" parent="1">
          <mxGeometry x="2070" y="3750" width="80" as="geometry">
            <mxRectangle x="220" y="130" width="160" height="26" as="alternateBounds" />
          </mxGeometry>
        </mxCell>
      </root>
    </mxGraphModel>
  </diagram>
</mxfile>
